<?xml version="1.0" encoding="UTF-8"?>
<svg version="1.1" xmlns="http://www.w3.org/2000/svg" width="300" height="300">
<path d="M0 0 C2.68701172 1.26831055 2.68701172 1.26831055 5.4296875 2.88671875 C6.4594873 3.48798584 7.48928711 4.08925293 8.55029297 4.70874023 C9.64744629 5.36173096 10.74459961 6.01472168 11.875 6.6875 C13.03869479 7.3707773 14.20292949 8.05313582 15.36767578 8.73461914 C17.75843708 10.13527028 20.14615248 11.54089806 22.53125 12.95117188 C27.63359857 15.96754369 32.75495088 18.95130792 37.875 21.9375 C38.84550293 22.5049292 39.81600586 23.0723584 40.81591797 23.65698242 C49.10702229 28.4987652 57.44145822 33.26289152 65.78341675 38.01620483 C74.90402811 43.21436967 83.99246103 48.46504828 93.04492188 53.78125 C102.98270466 59.60710045 112.99530811 65.2830332 123 71 C123 119.84 123 168.68 123 219 C115.41 223.29 107.82 227.58 100 232 C96.09643235 234.25971373 92.19855195 236.52361837 88.3125 238.8125 C79.57493049 243.93412258 70.79983667 248.98647712 62 254 C53.265867 258.97713027 44.55398053 263.98955446 35.875 269.0625 C34.91867676 269.61881104 33.96235352 270.17512207 32.97705078 270.74829102 C28.2131968 273.5220847 23.46325674 276.31571908 18.74069214 279.15913391 C16.36805418 280.58421447 13.98765444 281.99599677 11.60601807 283.40597534 C9.91365069 284.41446781 8.23181581 285.44056875 6.55029297 286.46704102 C5.52049316 287.07475342 4.49069336 287.68246582 3.4296875 288.30859375 C2.07206299 289.12541626 2.07206299 289.12541626 0.68701172 289.95874023 C-2.72564388 291.28119854 -4.49959116 290.99018727 -8 290 C-10.68701172 288.73168945 -10.68701172 288.73168945 -13.4296875 287.11328125 C-14.97438721 286.21138062 -14.97438721 286.21138062 -16.55029297 285.29125977 C-17.64744629 284.63826904 -18.74459961 283.98527832 -19.875 283.3125 C-21.03869479 282.6292227 -22.20292949 281.94686418 -23.36767578 281.26538086 C-25.75843708 279.86472972 -28.14615248 278.45910194 -30.53125 277.04882812 C-35.63359857 274.03245631 -40.75495088 271.04869208 -45.875 268.0625 C-46.84550293 267.4950708 -47.81600586 266.9276416 -48.81591797 266.34301758 C-57.10702229 261.5012348 -65.44145822 256.73710848 -73.78341675 251.98379517 C-82.90402811 246.78563033 -91.99246103 241.53495172 -101.04492188 236.21875 C-110.98270466 230.39289955 -120.99530811 224.7169668 -131 219 C-131 170.16 -131 121.32 -131 71 C-123.41 66.71 -115.82 62.42 -108 58 C-104.09643235 55.74028627 -100.19855195 53.47638163 -96.3125 51.1875 C-87.57493049 46.06587742 -78.79983667 41.01352288 -70 36 C-61.265867 31.02286973 -52.55398053 26.01044554 -43.875 20.9375 C-42.91867676 20.38118896 -41.96235352 19.82487793 -40.97705078 19.25170898 C-36.2131968 16.4779153 -31.46325674 13.68428092 -26.74069214 10.84086609 C-24.36805418 9.41578553 -21.98765444 8.00400323 -19.60601807 6.59402466 C-17.91365069 5.58553219 -16.23181581 4.55943125 -14.55029297 3.53295898 C-13.52049316 2.92524658 -12.49069336 2.31753418 -11.4296875 1.69140625 C-10.52460449 1.14685791 -9.61952148 0.60230957 -8.68701172 0.04125977 C-5.27435612 -1.28119854 -3.50040884 -0.99018727 0 0 Z " fill="#4829A0" transform="translate(154,5)"/>
<path d="M0 0 C2.68701172 1.26831055 2.68701172 1.26831055 5.4296875 2.88671875 C6.4594873 3.48798584 7.48928711 4.08925293 8.55029297 4.70874023 C9.64744629 5.36173096 10.74459961 6.01472168 11.875 6.6875 C13.03869479 7.3707773 14.20292949 8.05313582 15.36767578 8.73461914 C17.75843708 10.13527028 20.14615248 11.54089806 22.53125 12.95117188 C27.63359857 15.96754369 32.75495088 18.95130792 37.875 21.9375 C38.84550293 22.5049292 39.81600586 23.0723584 40.81591797 23.65698242 C49.10702229 28.4987652 57.44145822 33.26289152 65.78341675 38.01620483 C74.90402811 43.21436967 83.99246103 48.46504828 93.04492188 53.78125 C102.98270466 59.60710045 112.99530811 65.2830332 123 71 C123 119.84 123 168.68 123 219 C115.41 223.29 107.82 227.58 100 232 C96.09643235 234.25971373 92.19855195 236.52361837 88.3125 238.8125 C79.57493049 243.93412258 70.79983667 248.98647712 62 254 C53.265867 258.97713027 44.55398053 263.98955446 35.875 269.0625 C34.91867676 269.61881104 33.96235352 270.17512207 32.97705078 270.74829102 C28.2131968 273.5220847 23.46325674 276.31571908 18.74069214 279.15913391 C16.36805418 280.58421447 13.98765444 281.99599677 11.60601807 283.40597534 C9.91365069 284.41446781 8.23181581 285.44056875 6.55029297 286.46704102 C5.52049316 287.07475342 4.49069336 287.68246582 3.4296875 288.30859375 C2.07206299 289.12541626 2.07206299 289.12541626 0.68701172 289.95874023 C-2.72564388 291.28119854 -4.49959116 290.99018727 -8 290 C-10.68701172 288.73168945 -10.68701172 288.73168945 -13.4296875 287.11328125 C-14.97438721 286.21138062 -14.97438721 286.21138062 -16.55029297 285.29125977 C-17.64744629 284.63826904 -18.74459961 283.98527832 -19.875 283.3125 C-21.03869479 282.6292227 -22.20292949 281.94686418 -23.36767578 281.26538086 C-25.75843708 279.86472972 -28.14615248 278.45910194 -30.53125 277.04882812 C-35.63359857 274.03245631 -40.75495088 271.04869208 -45.875 268.0625 C-46.84550293 267.4950708 -47.81600586 266.9276416 -48.81591797 266.34301758 C-57.10702229 261.5012348 -65.44145822 256.73710848 -73.78341675 251.98379517 C-82.90402811 246.78563033 -91.99246103 241.53495172 -101.04492188 236.21875 C-110.98270466 230.39289955 -120.99530811 224.7169668 -131 219 C-131 170.16 -131 121.32 -131 71 C-123.41 66.71 -115.82 62.42 -108 58 C-104.09643235 55.74028627 -100.19855195 53.47638163 -96.3125 51.1875 C-87.57493049 46.06587742 -78.79983667 41.01352288 -70 36 C-61.265867 31.02286973 -52.55398053 26.01044554 -43.875 20.9375 C-42.91867676 20.38118896 -41.96235352 19.82487793 -40.97705078 19.25170898 C-36.2131968 16.4779153 -31.46325674 13.68428092 -26.74069214 10.84086609 C-24.36805418 9.41578553 -21.98765444 8.00400323 -19.60601807 6.59402466 C-17.91365069 5.58553219 -16.23181581 4.55943125 -14.55029297 3.53295898 C-13.52049316 2.92524658 -12.49069336 2.31753418 -11.4296875 1.69140625 C-10.52460449 1.14685791 -9.61952148 0.60230957 -8.68701172 0.04125977 C-5.27435612 -1.28119854 -3.50040884 -0.99018727 0 0 Z M-9.3828125 9.3515625 C-10.28990967 9.86565674 -11.19700684 10.37975098 -12.1315918 10.90942383 C-13.61332886 11.75863403 -13.61332886 11.75863403 -15.125 12.625 C-16.15471924 13.21112061 -17.18443848 13.79724121 -18.24536133 14.40112305 C-26.41667036 19.06398044 -34.54471186 23.80009054 -42.66259766 28.55517578 C-50.4119218 33.08963318 -58.19891827 37.55551115 -66 42 C-76.83335734 48.17330176 -87.62156906 54.42044273 -98.3828125 60.71875 C-102.14171042 62.91806358 -105.9071828 65.10535821 -109.6796875 67.28125 C-110.56841553 67.79389404 -111.45714355 68.30653809 -112.37280273 68.8347168 C-114.04082561 69.7958346 -115.70957026 70.75570122 -117.37915039 71.71411133 C-120.89358763 73.57675632 -120.89358763 73.57675632 -124 76 C-124.12471356 77.76543398 -124.17966329 79.53582429 -124.20773315 81.30543518 C-124.2278949 82.45640182 -124.24805664 83.60736847 -124.26882935 84.79321289 C-124.28565765 86.06745117 -124.30248596 87.34168945 -124.31982422 88.65454102 C-124.34081057 90.00130098 -124.36205689 91.34805691 -124.38354492 92.69480896 C-124.57159758 105.01122639 -124.67417312 117.32899875 -124.75568962 129.64653111 C-124.81723098 138.75175888 -124.92066853 147.85451108 -125.07838428 156.95859009 C-125.18553804 163.35947335 -125.24275101 169.7596765 -125.26382077 176.16141456 C-125.27788122 179.98491448 -125.31420351 183.80517677 -125.405056 187.62768745 C-125.48978168 191.22977367 -125.51243577 194.82707955 -125.48869324 198.43003273 C-125.49159987 200.37327481 -125.55895909 202.31609013 -125.62857056 204.25808716 C-125.56800944 207.92861832 -125.37180168 210.58921429 -124 214 C-120.0210773 217.57102287 -115.82695037 219.68812737 -111 222 C-108.79355854 223.22686368 -106.6248748 224.50750657 -104.44921875 225.7890625 C-102.19637346 227.06957672 -99.94243321 228.34816611 -97.6875 229.625 C-95.21390363 231.0309032 -92.74154681 232.43897565 -90.26953125 233.84765625 C-89.65392334 234.19833664 -89.03831543 234.54901703 -88.40405273 234.9103241 C-82.53835699 238.25562191 -76.70300524 241.65199438 -70.875 245.0625 C-61.56907641 250.5066083 -52.2440228 255.91623673 -42.89941406 261.29370117 C-37.77621569 264.2421242 -32.65656391 267.19602543 -27.55178833 270.17622375 C-25.15506477 271.57509392 -22.75628035 272.97040892 -20.35736084 274.36550903 C-18.66087854 275.35409266 -16.96736732 276.34776929 -15.27392578 277.34155273 C-14.2476709 277.93782471 -13.22141602 278.53409668 -12.1640625 279.1484375 C-11.26123535 279.67614746 -10.3584082 280.20385742 -9.42822266 280.74755859 C-6.35162605 282.37671392 -6.35162605 282.37671392 -3 283 C-0.26486338 281.8954481 -0.26486338 281.8954481 2.6015625 280.125 C3.71805176 279.47716553 4.83454102 278.82933105 5.98486328 278.16186523 C7.19834015 277.44140847 8.4117164 276.7207822 9.625 276 C10.88584761 275.26319077 12.14741472 274.52761148 13.40966797 273.79321289 C16.00972681 272.27841587 18.60592534 270.7573062 21.19921875 269.23095703 C25.76230024 266.54785242 30.35001331 263.9080914 34.93896484 261.26953125 C38.15180717 259.42208536 41.36149948 257.56927817 44.5703125 255.71484375 C49.96181903 252.59944145 55.35486691 249.48672315 60.7487793 246.37548828 C62.90667813 245.13068999 65.06439466 243.88557562 67.22192383 242.64013672 C72.21437528 239.75849631 77.20803265 236.87903836 82.20706177 234.00881958 C83.95024732 233.0078019 85.69296372 232.00597217 87.43554688 231.00390625 C89.60129618 229.75881961 91.76788871 228.5151979 93.93554688 227.2734375 C95.88067254 226.154393 97.81768085 225.021056 99.74419785 223.87027073 C103 222 103 222 106.37363052 220.37703609 C113.05464848 217.05014174 113.05464848 217.05014174 117.2183609 211.09689522 C117.70927067 207.53260413 117.7806941 204.16423834 117.71386719 200.56665039 C117.73479115 199.220391 117.76119848 197.87420746 117.79263306 196.52815247 C117.86014765 192.89031235 117.84580074 189.25716329 117.81209469 185.61901784 C117.79169527 182.57464166 117.81242547 179.53110767 117.83320546 176.48677725 C117.88189173 169.30068764 117.86493128 162.11685362 117.8046875 154.9309082 C117.74363766 147.53419554 117.78410115 140.14308311 117.87626529 132.7468186 C117.95252237 126.38009588 117.97004544 120.01509092 117.94004178 113.64798158 C117.92244657 109.85220684 117.92550526 106.05952866 117.98329926 102.26408577 C118.9062903 87.40218196 118.9062903 87.40218196 114.5365696 73.88536072 C111.0929559 70.69063123 107.32504804 69.0139198 102.87833595 67.64072609 C99.92918738 66.63473117 97.39908115 65.00248143 94.76171875 63.3671875 C92.73774693 62.20179059 90.71298949 61.03775716 88.6875 59.875 C86.42055224 58.57034843 84.15362576 57.26565987 81.88671875 55.9609375 C80.17427979 54.97625488 80.17427979 54.97625488 78.42724609 53.97167969 C72.94844203 50.81974768 67.47438887 47.65959203 62 44.5 C59.83335774 43.2499577 57.66669103 41.99995776 55.5 40.75 C42.5 33.25 42.5 33.25 39.24414062 31.37133789 C37.09733086 30.13298021 34.95020016 28.8951787 32.80273438 27.65795898 C27.69881776 24.71652804 22.59851866 21.76926228 17.50927734 18.80252075 C15.09061686 17.39302963 12.67014138 15.98667235 10.24951172 14.58056641 C8.53043948 13.58021318 6.8140218 12.57530266 5.09765625 11.5703125 C4.06511719 10.97089844 3.03257812 10.37148437 1.96875 9.75390625 C1.05544922 9.22095947 0.14214844 8.6880127 -0.79882812 8.13891602 C-4.49600136 6.22594872 -5.94065703 7.39243757 -9.3828125 9.3515625 Z " fill="#7A77F9" transform="translate(154,5)"/>
<path d="M0 0 C3.082438 3.15582938 3.20421541 4.32555974 3.5 8.625 C3.33324721 12.0350946 3.22247221 13.96409002 1.03125 16.6171875 C-2.20009434 18.8169873 -4.58033551 19.67160671 -8.5 19.75 C-14.65031646 17.47705696 -14.65031646 17.47705696 -17.375 14.6875 C-18.37349822 10.4914301 -18.42496522 6.8759482 -17.375 2.6875 C-12.27759526 -3.4843577 -6.81503076 -2.65028974 0 0 Z " fill="#F69A20" transform="translate(187.375,51.3125)"/>
<path d="M0 0 C1.17755859 0.02320313 1.17755859 0.02320313 2.37890625 0.046875 C4.4375 0.25 4.4375 0.25 6.4375 1.25 C6.4375 2.57 6.4375 3.89 6.4375 5.25 C3.4675 5.25 0.4975 5.25 -2.5625 5.25 C-2.5625 5.91 -2.5625 6.57 -2.5625 7.25 C-0.9228125 7.6521875 -0.9228125 7.6521875 0.75 8.0625 C5.90251129 9.7217833 5.90251129 9.7217833 7.4375 12.25 C7.875 15.25 7.875 15.25 7.4375 18.25 C5.17107995 20.5270356 3.85777204 21.20597709 0.640625 21.54296875 C-0.33390625 21.50816406 -1.3084375 21.47335938 -2.3125 21.4375 C-3.78976563 21.39689453 -3.78976563 21.39689453 -5.296875 21.35546875 C-6.04453125 21.32066406 -6.7921875 21.28585938 -7.5625 21.25 C-7.5625 19.6 -7.5625 17.95 -7.5625 16.25 C-4.9225 16.25 -2.2825 16.25 0.4375 16.25 C0.7675 15.59 1.0975 14.93 1.4375 14.25 C0.509375 14.146875 -0.41875 14.04375 -1.375 13.9375 C-4.5625 13.25 -4.5625 13.25 -6.4375 12.125 C-8.23718071 9.12553214 -7.92744286 6.65613332 -7.5625 3.25 C-5.34937631 0.20608224 -3.6740311 -0.12105539 0 0 Z " fill="#F4F3FA" transform="translate(100.5625,136.75)"/>
<path d="M0 0 C1.32 0 2.64 0 4 0 C5.32 3.3 6.64 6.6 8 10 C8.66 7.03 9.32 4.06 10 1 C11.32 0.67 12.64 0.34 14 0 C14.28875 0.886875 14.5775 1.77375 14.875 2.6875 C15.82693759 5.49042733 16.90062169 8.25155423 18 11 C18.99 7.37 19.98 3.74 21 0 C21.99 0 22.98 0 24 0 C23.56699236 6.81987029 22.09212176 11.91643021 19 18 C17.68 17.67 16.36 17.34 15 17 C14.34 14.03 13.68 11.06 13 8 C12.67 8 12.34 8 12 8 C11.34 10.97 10.68 13.94 10 17 C8.68 17.33 7.36 17.66 6 18 C3.40052213 15.40052213 2.9315565 13.07261547 1.875 9.5625 C1.52179688 8.40878906 1.16859375 7.25507812 0.8046875 6.06640625 C0 3 0 3 0 0 Z " fill="#F1EFF9" transform="translate(126,51)"/>
<path d="M0 0 C0.78246094 -0.02578125 1.56492187 -0.0515625 2.37109375 -0.078125 C4.5625 0.25 4.5625 0.25 6.3359375 1.28515625 C8.24059805 4.33625261 7.87650213 7.46355685 7.75 10.9375 C7.73646484 11.63939453 7.72292969 12.34128906 7.70898438 13.06445312 C7.67370182 14.79329829 7.61989583 16.52174765 7.5625 18.25 C6.5725 18.25 5.5825 18.25 4.5625 18.25 C4.5625 17.59 4.5625 16.93 4.5625 16.25 C3.5725 16.91 2.5825 17.57 1.5625 18.25 C-2 18.5 -2 18.5 -5.4375 18.25 C-7.4375 16.25 -7.4375 16.25 -7.6875 13.25 C-7.4375 10.25 -7.4375 10.25 -5.4375 8.25 C-3.2734375 8.0546875 -3.2734375 8.0546875 -0.8125 8.125 C0.41339844 8.15207031 0.41339844 8.15207031 1.6640625 8.1796875 C2.60378906 8.21449219 2.60378906 8.21449219 3.5625 8.25 C3.2325 6.93 2.9025 5.61 2.5625 4.25 C-0.4075 4.25 -3.3775 4.25 -6.4375 4.25 C-6.4375 3.26 -6.4375 2.27 -6.4375 1.25 C-4.11063547 0.08656773 -2.59028587 0.05104012 0 0 Z " fill="#ECE9F7" transform="translate(117.4375,50.75)"/>
<path d="M0 0 C1.98 0 3.96 0 6 0 C6 3.63 6 7.26 6 11 C6.99 11 7.98 11 9 11 C9 7.37 9 3.74 9 0 C10.98 0 12.96 0 15 0 C15 4.95 15 9.9 15 15 C5.0390625 15.1953125 5.0390625 15.1953125 2 15 C0 13 0 13 -0.1953125 9.9609375 C-0.17210937 8.77757812 -0.14890625 7.59421875 -0.125 6.375 C-0.10695312 5.18648437 -0.08890625 3.99796875 -0.0703125 2.7734375 C-0.04710937 1.85820312 -0.02390625 0.94296875 0 0 Z " fill="#F2F0F8" transform="translate(141,143)"/>
<path d="M0 0 C2.4375 0.8125 2.4375 0.8125 4.4375 2.8125 C4.4375 4.1325 4.4375 5.4525 4.4375 6.8125 C1.7975 6.8125 -0.8425 6.8125 -3.5625 6.8125 C-3.2325 7.8025 -2.9025 8.7925 -2.5625 9.8125 C-0.2525 10.1425 2.0575 10.4725 4.4375 10.8125 C4.1075 11.4725 3.7775 12.1325 3.4375 12.8125 C-0.50977588 12.99192163 -3.1605513 12.90600689 -6.5625 10.8125 C-6.5625 11.4725 -6.5625 12.1325 -6.5625 12.8125 C-11.93092105 13.17039474 -11.93092105 13.17039474 -14.4375 11.75 C-16.18223477 8.74517901 -15.87085443 6.20439869 -15.5625 2.8125 C-13.5625 0.8125 -13.5625 0.8125 -9.9375 0.6875 C-8.266875 0.749375 -8.266875 0.749375 -6.5625 0.8125 C-6.2325 1.4725 -5.9025 2.1325 -5.5625 2.8125 C-5.170625 2.296875 -4.77875 1.78125 -4.375 1.25 C-2.5625 -0.1875 -2.5625 -0.1875 0 0 Z " fill="#8A75CA" transform="translate(125.5625,79.1875)"/>
<path d="M0 0 C1.65 0 3.3 0 5 0 C5.99 1.98 6.98 3.96 8 6 C8.66 4.02 9.32 2.04 10 0 C11.65 0 13.3 0 15 0 C11.88 16.12 11.88 16.12 7 21 C3.375 21.125 3.375 21.125 0 21 C0 19.68 0 18.36 0 17 C1.32 16.67 2.64 16.34 4 16 C3.38100042 12.03840266 2.12267721 8.56007698 0.62109375 4.8671875 C0 3 0 3 0 0 Z " fill="#F4F3F9" transform="translate(193,143)"/>
<path d="M0 0 C1.9375 1.0625 1.9375 1.0625 3 3 C3.1875 6.6875 3.1875 6.6875 3 10 C0.36 10 -2.28 10 -5 10 C-5 10.66 -5 11.32 -5 12 C-2.36 12 0.28 12 3 12 C2.67 13.32 2.34 14.64 2 16 C0.3973218 16.10824843 -1.20745748 16.18570645 -2.8125 16.25 C-3.70582031 16.29640625 -4.59914063 16.3428125 -5.51953125 16.390625 C-8 16 -8 16 -9.83203125 14.26953125 C-11.18439161 11.64170059 -11.25828123 10.34159238 -10.875 7.4375 C-10.78992188 6.67308594 -10.70484375 5.90867188 -10.6171875 5.12109375 C-8.98307423 -0.49487779 -5.32759309 -0.57081355 0 0 Z " fill="#E9E6F4" transform="translate(121,142)"/>
<path d="M0 0 C1.65 0 3.3 0 5 0 C5 1.32 5 2.64 5 4 C5.99 4 6.98 4 8 4 C8 4.99 8 5.98 8 7 C7.01 7 6.02 7 5 7 C5 9.64 5 12.28 5 15 C6.32 15 7.64 15 9 15 C9 16.32 9 17.64 9 19 C2.9453125 19.1953125 2.9453125 19.1953125 1 19 C-1 17 -1 17 -1.1953125 14.8359375 C-1.17210937 14.02382812 -1.14890625 13.21171875 -1.125 12.375 C-1.10695312 11.55773437 -1.08890625 10.74046875 -1.0703125 9.8984375 C-1.04710937 9.27195313 -1.02390625 8.64546875 -1 8 C-1.66 8 -2.32 8 -3 8 C-3 6.68 -3 5.36 -3 4 C-2.34 3.67 -1.68 3.34 -1 3 C-0.67 2.01 -0.34 1.02 0 0 Z " fill="#F3F1F8" transform="translate(183,139)"/>
<path d="M0 0 C1.32 0.66 2.64 1.32 4 2 C4.47057583 6.09793116 4.68890388 9.91956932 4 14 C1.76614368 16.76731454 -0.60332767 18.02604378 -4 19 C-7.5 18.8125 -7.5 18.8125 -10 18 C-10 14 -10 14 -8.28515625 12.18359375 C-7.55167969 11.60738281 -6.81820312 11.03117187 -6.0625 10.4375 C-2.70274131 7.84154859 -2.70274131 7.84154859 -1 4 C-1.66 3.34 -2.32 2.68 -3 2 C-2.01 1.34 -1.02 0.68 0 0 Z " fill="#F59619" transform="translate(186,52)"/>
<path d="M0 0 C0.66 0.33 1.32 0.66 2 1 C2 2.32 2 3.64 2 5 C0.02 5.33 -1.96 5.66 -4 6 C-4 7.65 -4 9.3 -4 11 C-1.03 11.495 -1.03 11.495 2 12 C2 13.32 2 14.64 2 16 C0.56344146 16.08131463 -0.8744483 16.13933559 -2.3125 16.1875 C-3.51326172 16.23970703 -3.51326172 16.23970703 -4.73828125 16.29296875 C-7.51627459 15.93312505 -8.29427215 15.16758647 -10 13 C-11.44430855 10.11138291 -11.37688506 8.20352299 -11 5 C-7.71828809 0.56003683 -5.49952923 -0.73327056 0 0 Z " fill="#EDEAF6" transform="translate(137,142)"/>
<path d="M0 0 C0.66 0 1.32 0 2 0 C2 5.94 2 11.88 2 18 C-0.64 18 -3.28 18 -6 18 C-8 16 -8 16 -8.265625 14.125 C-8.26046875 13.42375 -8.2553125 12.7225 -8.25 12 C-8.25515625 11.29875 -8.2603125 10.5975 -8.265625 9.875 C-8 8 -8 8 -6 6 C-2.875 5.875 -2.875 5.875 0 6 C0 4.02 0 2.04 0 0 Z " fill="#EEECF7" transform="translate(188,74)"/>
<path d="M0 0 C2.01822917 0.06510417 4.03645833 0.13020833 6.0546875 0.1953125 C6.3846875 1.1853125 6.7146875 2.1753125 7.0546875 3.1953125 C4.4146875 3.1953125 1.7746875 3.1953125 -0.9453125 3.1953125 C-0.27560739 6.25931116 -0.27560739 6.25931116 1.90234375 7.36328125 C2.63324219 7.69972656 3.36414063 8.03617188 4.1171875 8.3828125 C4.85066406 8.72699219 5.58414063 9.07117187 6.33984375 9.42578125 C6.90574219 9.67972656 7.47164062 9.93367188 8.0546875 10.1953125 C7.79907427 12.5384338 7.46197978 14.87374653 7.0546875 17.1953125 C4.64923112 18.39804069 3.10471797 18.29602722 0.4296875 18.2578125 C-0.79621094 18.24427734 -0.79621094 18.24427734 -2.046875 18.23046875 C-2.67335937 18.21886719 -3.29984375 18.20726563 -3.9453125 18.1953125 C-4.2753125 17.2053125 -4.6053125 16.2153125 -4.9453125 15.1953125 C-2.92708333 15.29296875 -0.90885417 15.390625 1.109375 15.48828125 C1.75132812 15.39160156 2.39328125 15.29492188 3.0546875 15.1953125 C3.7146875 14.2053125 4.3746875 13.2153125 5.0546875 12.1953125 C3.9615625 11.9271875 2.8684375 11.6590625 1.7421875 11.3828125 C-3.45578574 9.70888892 -3.45578574 9.70888892 -4.9453125 7.1953125 C-4.68043814 3.57536296 -4.14324919 0.41598887 0 0 Z " fill="#F0EDF8" transform="translate(156.9453125,50.8046875)"/>
<path d="M0 0 C1.32 0 2.64 0 4 0 C4 0.66 4 1.32 4 2 C2.68 2 1.36 2 0 2 C0 3.32 0 4.64 0 6 C2.64 6 5.28 6 8 6 C8 9.96 8 13.92 8 18 C7.34 18 6.68 18 6 18 C6 14.37 6 10.74 6 7 C4.02 7 2.04 7 0 7 C0 10.63 0 14.26 0 18 C-0.66 18 -1.32 18 -2 18 C-2 14.7 -2 11.4 -2 8 C-2.66 8 -3.32 8 -4 8 C-4 7.34 -4 6.68 -4 6 C-4.66 6 -5.32 6 -6 6 C-6 9.96 -6 13.92 -6 18 C-6.66 18 -7.32 18 -8 18 C-8 12.39 -8 6.78 -8 1 C-5.03 1.495 -5.03 1.495 -2 2 C-1.34 1.34 -0.68 0.68 0 0 Z " fill="#A291D4" transform="translate(157,74)"/>
<path d="M0 0 C0.99 0 1.98 0 3 0 C3 1.98 3 3.96 3 6 C1.35 6 -0.3 6 -2 6 C-2 9.3 -2 12.6 -2 16 C-3.98 16 -5.96 16 -8 16 C-8 11.05 -8 6.1 -8 1 C-5.69 1 -3.38 1 -1 1 C-0.67 0.67 -0.34 0.34 0 0 Z " fill="#EDEAF5" transform="translate(168,142)"/>
<path d="M0 0 C1.65 0 3.3 0 5 0 C5.99 3.63 6.98 7.26 8 11 C6.68 11 5.36 11 4 11 C4 10.34 4 9.68 4 9 C2.68 9 1.36 9 0 9 C0 9.66 0 10.32 0 11 C-0.99 11 -1.98 11 -3 11 C-2.53199289 6.94393835 -2.12046792 3.53411321 0 0 Z " fill="#F0EDF6" transform="translate(160,203)"/>
<path d="M0 0 C2.4375 0.8125 2.4375 0.8125 4.4375 2.8125 C4.4375 4.1325 4.4375 5.4525 4.4375 6.8125 C1.7975 6.8125 -0.8425 6.8125 -3.5625 6.8125 C-3.2325 7.8025 -2.9025 8.7925 -2.5625 9.8125 C-0.2525 10.1425 2.0575 10.4725 4.4375 10.8125 C4.1075 11.4725 3.7775 12.1325 3.4375 12.8125 C-1.93092105 13.17039474 -1.93092105 13.17039474 -4.4375 11.75 C-6.20523274 8.7055714 -5.93073916 6.2493988 -5.5625 2.8125 C-3.9058551 0.02236122 -3.24544844 -0.23747184 0 0 Z " fill="#DFD9F0" transform="translate(125.5625,79.1875)"/>
<path d="M0 0 C1.65 0 3.3 0 5 0 C5 4.95 5 9.9 5 15 C3.35 15 1.7 15 0 15 C0 10.05 0 5.1 0 0 Z " fill="#FEFEFE" transform="translate(173,143)"/>
<path d="M0 0 C6.15234375 -0.09765625 6.15234375 -0.09765625 8 0 C9 1 9 1 9.125 3.5 C9 6 9 6 8 7 C6.33382885 7.04063832 4.66611905 7.042721 3 7 C3 8.32 3 9.64 3 11 C2.01 11 1.02 11 0 11 C0 7.37 0 3.74 0 0 Z " fill="#D2CCE7" transform="translate(104,203)"/>
<path d="M0 0 C1.4540625 0.0309375 1.4540625 0.0309375 2.9375 0.0625 C2.9375 1.0525 2.9375 2.0425 2.9375 3.0625 C1.6175 3.0625 0.2975 3.0625 -1.0625 3.0625 C-1.0625 3.7225 -1.0625 4.3825 -1.0625 5.0625 C0.2575 5.3925 1.5775 5.7225 2.9375 6.0625 C3.31968767 7.71864657 3.65145102 9.38707024 3.9375 11.0625 C2.9375 12.0625 2.9375 12.0625 -0.625 12.125 C-1.759375 12.104375 -2.89375 12.08375 -4.0625 12.0625 C-4.0625 11.4025 -4.0625 10.7425 -4.0625 10.0625 C-2.7425 10.0625 -1.4225 10.0625 -0.0625 10.0625 C-0.0625 9.4025 -0.0625 8.7425 -0.0625 8.0625 C-2.5375 7.0725 -2.5375 7.0725 -5.0625 6.0625 C-3.98897059 0.08140756 -3.98897059 0.08140756 0 0 Z " fill="#EBE7F4" transform="translate(94.0625,201.9375)"/>
<path d="M0 0 C2.9375 0.1875 2.9375 0.1875 3.9375 1.1875 C3.97813832 2.85367115 3.980221 4.52138095 3.9375 6.1875 C1.2975 6.1875 -1.3425 6.1875 -4.0625 6.1875 C-3.7325 7.1775 -3.4025 8.1675 -3.0625 9.1875 C-0.7525 9.5175 1.5575 9.8475 3.9375 10.1875 C3.9375 10.8475 3.9375 11.5075 3.9375 12.1875 C0.5625 12.3125 0.5625 12.3125 -3.0625 12.1875 C-5.0625 10.1875 -5.0625 10.1875 -5.328125 8.3125 C-5.32296875 7.61125 -5.3178125 6.91 -5.3125 6.1875 C-5.31765625 5.48625 -5.3228125 4.785 -5.328125 4.0625 C-4.82973343 0.54444188 -3.335244 0.20419861 0 0 Z " fill="#ECE9F6" transform="translate(173.0625,79.8125)"/>
<path d="M0 0 C0.33 1.65 0.66 3.3 1 5 C0.04287109 5.09087891 0.04287109 5.09087891 -0.93359375 5.18359375 C-1.75988281 5.26738281 -2.58617188 5.35117187 -3.4375 5.4375 C-4.67306641 5.55931641 -4.67306641 5.55931641 -5.93359375 5.68359375 C-7.98662025 5.78930815 -7.98662025 5.78930815 -9 7 C-9.04080783 8.99958364 -9.04254356 11.00045254 -9 13 C-6.69 13.66 -4.38 14.32 -2 15 C-2 15.33 -2 15.66 -2 16 C-5.3125 16.3125 -5.3125 16.3125 -9 16 C-11 13.8125 -11 13.8125 -12 11 C-11.74756206 7.4658688 -10.99789249 5.99683874 -9 3 C-9 2.34 -9 1.68 -9 1 C-6.04335481 -0.4783226 -3.25770263 -0.06032783 0 0 Z " fill="#593AB8" transform="translate(120,54)"/>
<path d="M0 0 C2.64 0 5.28 0 8 0 C8 0.66 8 1.32 8 2 C6.35 2 4.7 2 3 2 C3 2.66 3 3.32 3 4 C4.32 4 5.64 4 7 4 C7 4.99 7 5.98 7 7 C5.68 7 4.36 7 3 7 C3 7.66 3 8.32 3 9 C4.65 9 6.3 9 8 9 C8 9.66 8 10.32 8 11 C5.36 11 2.72 11 0 11 C0 7.37 0 3.74 0 0 Z " fill="#F8F7FB" transform="translate(119,203)"/>
<path d="M0 0 C0.33 0.99 0.66 1.98 1 3 C3.01508358 3.73323796 3.01508358 3.73323796 5 4 C3.68 4 2.36 4 1 4 C1 6.97 1 9.94 1 13 C2.32 13 3.64 13 5 13 C5 13.66 5 14.32 5 15 C0.125 14.125 0.125 14.125 -1 13 C-1.14115161 10.32941149 -1.04247107 7.67567762 -1 5 C-2.98 5.33 -4.96 5.66 -7 6 C-7.33 8.97 -7.66 11.94 -8 15 C-8.33 15 -8.66 15 -9 15 C-9 11.04 -9 7.08 -9 3 C-3.375 1.875 -3.375 1.875 0 3 C0 2.01 0 1.02 0 0 Z " fill="#B2A5DB" transform="translate(142,77)"/>
<path d="M0 0 C1.9375 0.375 1.9375 0.375 4 1 C4.33 1.66 4.66 2.32 5 3 C5.66 2.34 6.32 1.68 7 1 C7.99 1 8.98 1 10 1 C9.01 4.63 8.02 8.26 7 12 C5.68 12 4.36 12 3 12 C2 8 1 4 0 0 Z " fill="#E5E1EF" transform="translate(200,202)"/>
<path d="M0 0 C0.33 0.99 0.66 1.98 1 3 C-0.65 3.33 -2.3 3.66 -4 4 C-3.67 5.65 -3.34 7.3 -3 9 C-1.68 9.33 -0.36 9.66 1 10 C1 10.66 1 11.32 1 12 C-2.375 12.125 -2.375 12.125 -6 12 C-8 10 -8 10 -8.3125 6.5625 C-8 3 -8 3 -6.8125 1.0625 C-4.43958382 -0.32851983 -2.70313576 -0.21917317 0 0 Z " fill="#F1EEF7" transform="translate(141,202)"/>
<path d="M0 0 C1.32 0 2.64 0 4 0 C4.67031719 1.9570868 5.33614683 3.91571113 6 5.875 C6.556875 7.51082031 6.556875 7.51082031 7.125 9.1796875 C8 12 8 12 8 14 C7.01 14 6.02 14 5 14 C4.67 14.66 4.34 15.32 4 16 C3.32815382 13.89748139 2.66269032 11.79292237 2 9.6875 C1.443125 7.92986328 1.443125 7.92986328 0.875 6.13671875 C0 3 0 3 0 0 Z " fill="#DCD6F0" transform="translate(126,51)"/>
<path d="M0 0 C2.625 0.375 2.625 0.375 5 1 C5 3.64 5 6.28 5 9 C3.02 9 1.04 9 -1 9 C-1.625 5.625 -1.625 5.625 -2 2 C-1.34 1.34 -0.68 0.68 0 0 Z " fill="#4627A5" transform="translate(183,81)"/>
<path d="M0 0 C0.66 0 1.32 0 2 0 C2 0.99 2 1.98 2 3 C3.32 3 4.64 3 6 3 C6 7.29 6 11.58 6 16 C5.67 15.34 5.34 14.68 5 14 C3.68 14 2.36 14 1 14 C1.01160156 13.32453125 1.02320313 12.6490625 1.03515625 11.953125 C1.04417969 11.06109375 1.05320313 10.1690625 1.0625 9.25 C1.07990234 7.92742187 1.07990234 7.92742187 1.09765625 6.578125 C1.00826198 4.2181162 0.66912821 2.25501476 0 0 Z " fill="#6045B5" transform="translate(142,76)"/>
<path d="M0 0 C1.32 0 2.64 0 4 0 C4 0.66 4 1.32 4 2 C2.68 2 1.36 2 0 2 C0 3.32 0 4.64 0 6 C2.64 6 5.28 6 8 6 C8 9.96 8 13.92 8 18 C7.34 18 6.68 18 6 18 C6 14.37 6 10.74 6 7 C4.02 7 2.04 7 0 7 C0 10.63 0 14.26 0 18 C-0.33 18 -0.66 18 -1 18 C-1 14.37 -1 10.74 -1 7 C-1.66 6.67 -2.32 6.34 -3 6 C-2.34 6 -1.68 6 -1 6 C-1.0309375 4.7934375 -1.0309375 4.7934375 -1.0625 3.5625 C-1 1 -1 1 0 0 Z " fill="#EBE8F5" transform="translate(157,74)"/>
<path d="M0 0 C1.670625 0.061875 1.670625 0.061875 3.375 0.125 C2.715 0.5375 2.055 0.95 1.375 1.375 C0.715 1.9525 0.055 2.53 -0.625 3.125 C-0.625 4.445 -0.625 5.765 -0.625 7.125 C0.365 7.455 1.355 7.785 2.375 8.125 C2.375 8.785 2.375 9.445 2.375 10.125 C-0.5 10.25 -0.5 10.25 -3.625 10.125 C-5.625 8.125 -5.625 8.125 -5.875 5.125 C-5.4955869 0.57204274 -4.51633162 0.15573557 0 0 Z " fill="#F0EDF8" transform="translate(115.625,58.875)"/>
<path d="M0 0 C0.99 0.33 1.98 0.66 3 1 C3.36923077 6.53846154 3.36923077 6.53846154 1.5 8.875 C1.005 9.24625 0.51 9.6175 0 10 C0 9.34 0 8.68 0 8 C-2.31 8 -4.62 8 -7 8 C-7.33 6.68 -7.66 5.36 -8 4 C-5.36 4 -2.72 4 0 4 C0 2.68 0 1.36 0 0 Z " fill="#6F56B9" transform="translate(177,82)"/>
<path d="M0 0 C0.33 0.66 0.66 1.32 1 2 C0.34 2 -0.32 2 -1 2 C-1 3.32 -1 4.64 -1 6 C-0.34 6 0.32 6 1 6 C1.03738281 6.62648437 1.07476562 7.25296875 1.11328125 7.8984375 C1.17902344 8.71570313 1.24476563 9.53296875 1.3125 10.375 C1.37050781 11.18710938 1.42851562 11.99921875 1.48828125 12.8359375 C1.82990528 15.37921338 1.82990528 15.37921338 5 17 C6.65549531 17.38499891 8.3222433 17.72793135 10 18 C10 18.33 10 18.66 10 19 C4.58461538 19.36923077 4.58461538 19.36923077 1.625 17.5 C1.08875 17.005 0.5525 16.51 0 16 C-0.66 16.33 -1.32 16.66 -2 17 C-2 11.72 -2 6.44 -2 1 C-1.34 0.67 -0.68 0.34 0 0 Z " fill="#331192" transform="translate(181,141)"/>
<path d="M0 0 C2.39119721 2.39119721 2.59712795 3.69644917 3 7 C2.67 7.99 2.34 8.98 2 10 C0.02 10 -1.96 10 -4 10 C-4 7.69 -4 5.38 -4 3 C-2.68 3 -1.36 3 0 3 C0 2.01 0 1.02 0 0 Z " fill="#412199" transform="translate(192,144)"/>
<path d="M0 0 C3.3 0 6.6 0 10 0 C10 0.66 10 1.32 10 2 C9.01 2 8.02 2 7 2 C7 4.97 7 7.94 7 11 C6.01 11 5.02 11 4 11 C4 8.03 4 5.06 4 2 C2.68 2 1.36 2 0 2 C0 1.34 0 0.68 0 0 Z " fill="#FBFAFC" transform="translate(185,203)"/>
<path d="M0 0 C0.99 0 1.98 0 3 0 C3 2.97 3 5.94 3 9 C4.65 9 6.3 9 8 9 C8 9.66 8 10.32 8 11 C5.36 11 2.72 11 0 11 C0 7.37 0 3.74 0 0 Z " fill="#F6F5FA" transform="translate(174,203)"/>
<path d="M0 0 C0.99 0 1.98 0 3 0 C1.4404735 3.82792868 -0.83631836 6.36359864 -4 9 C-6.25 9 -6.25 9 -8 8 C-8.33 7.01 -8.66 6.02 -9 5 C-8.2575 4.9175 -7.515 4.835 -6.75 4.75 C-3.47076121 3.85566215 -2.32354246 2.40099388 0 0 Z " fill="#FDF1E1" transform="translate(183,56)"/>
<path d="M0 0 C0.99 0 1.98 0 3 0 C3 3.96 3 7.92 3 12 C2.01 12 1.02 12 0 12 C0 8.04 0 4.08 0 0 Z " fill="#F4F2F9" transform="translate(148,202)"/>
<path d="M0 0 C1.65 0 3.3 0 5 0 C4.01 0.495 4.01 0.495 3 1 C3.185625 1.9075 3.37125 2.815 3.5625 3.75 C3.95734621 6.68314324 3.94691572 8.2644657 3 11 C2.01 11 1.02 11 0 11 C0 7.37 0 3.74 0 0 Z " fill="#FCFBFD" transform="translate(104,203)"/>
<path d="M0 0 C1.4540625 0.0309375 1.4540625 0.0309375 2.9375 0.0625 C2.6075 1.7125 2.2775 3.3625 1.9375 5.0625 C0.2875 5.3925 -1.3625 5.7225 -3.0625 6.0625 C-3.44468767 4.40635343 -3.77645102 2.73792976 -4.0625 1.0625 C-3.0625 0.0625 -3.0625 0.0625 0 0 Z " fill="#5436B5" transform="translate(118.0625,60.9375)"/>
<path d="M0 0 C0.99 0 1.98 0 3 0 C2.88541307 1.43836751 2.75790884 2.87570966 2.625 4.3125 C2.55539063 5.11300781 2.48578125 5.91351563 2.4140625 6.73828125 C2 9 2 9 0 12 C-2 10 -2 10 -2.01171875 8.125 C-1.90472656 7.42375 -1.79773438 6.7225 -1.6875 6 C-1.58824219 5.29875 -1.48898438 4.5975 -1.38671875 3.875 C-1 2 -1 2 0 0 Z " fill="#E3DEF2" transform="translate(147,51)"/>
<path d="M0 0 C-0.54723683 3.37462715 -1.0549 5.08235 -3 8 C-3.99 8 -4.98 8 -6 8 C-5.74438677 5.6568787 -5.40729228 3.32156597 -5 1 C-3 0 -3 0 0 0 Z " fill="#D5CFE7" transform="translate(163,206)"/>
<path d="M0 0 C3.00617269 3.00617269 2.59585316 5.82381598 3 10 C1.35 10 -0.3 10 -2 10 C-1.34 6.7 -0.68 3.4 0 0 Z " fill="#593CB5" transform="translate(138,57)"/>
<path d="M0 0 C2.0625 0.4375 2.0625 0.4375 4 1 C3.67 2.65 3.34 4.3 3 6 C1.35 5.67 -0.3 5.34 -2 5 C-1.125 1.125 -1.125 1.125 0 0 Z " fill="#EDEAF6" transform="translate(174,135)"/>
<path d="M0 0 C0.33 0.99 0.66 1.98 1 3 C3.01508358 3.73323796 3.01508358 3.73323796 5 4 C3.68 4 2.36 4 1 4 C1 6.97 1 9.94 1 13 C2.32 13 3.64 13 5 13 C5 13.66 5 14.32 5 15 C3.35 14.67 1.7 14.34 0 14 C0 10.7 0 7.4 0 4 C-0.66 3.67 -1.32 3.34 -2 3 C-1.34 3 -0.68 3 0 3 C0 2.01 0 1.02 0 0 Z " fill="#F3F1F9" transform="translate(142,77)"/>
<path d="M0 0 C0.66 0 1.32 0 2 0 C2.09038099 5.15171623 1.84681133 9.91913204 1 15 C0.67 15 0.34 15 0 15 C-0.75612577 9.76528314 -1.2063366 5.22745859 0 0 Z " fill="#CBC2E6" transform="translate(188,74)"/>
<path d="M0 0 C1.65 0.33 3.3 0.66 5 1 C5 1.99 5 2.98 5 4 C2.69 4 0.38 4 -2 4 C-1.34 2.68 -0.68 1.36 0 0 Z " fill="#5436AD" transform="translate(171,81)"/>
<path d="M0 0 C0 1.65 0 3.3 0 5 C-2.64 5 -5.28 5 -8 5 C-7.67 3.68 -7.34 2.36 -7 1 C-2.25 0 -2.25 0 0 0 Z " fill="#775FBF" transform="translate(165,75)"/>
<path d="M0 0 C0.33 0 0.66 0 1 0 C1 1.98 1 3.96 1 6 C-0.32 6.33 -1.64 6.66 -3 7 C-3.33 5.68 -3.66 4.36 -4 3 C-3.01 3 -2.02 3 -1 3 C-0.67 2.01 -0.34 1.02 0 0 Z " fill="#F6F5FB" transform="translate(135,62)"/>
<path d="M0 0 C-0.33 0.99 -0.66 1.98 -1 3 C-3.31 3 -5.62 3 -8 3 C-8 2.34 -8 1.68 -8 1 C-4.93251126 -0.86240388 -3.40254489 -1.2151946 0 0 Z " fill="#5032AA" transform="translate(102,151)"/>
<path d="M0 0 C2.64 0 5.28 0 8 0 C7.67 0.99 7.34 1.98 7 3 C5.02 3 3.04 3 1 3 C0.67 2.01 0.34 1.02 0 0 Z " fill="#401EA8" transform="translate(122,87)"/>
<path d="M0 0 C1.65 0.33 3.3 0.66 5 1 C5 1.99 5 2.98 5 4 C3.02 4 1.04 4 -1 4 C-0.67 2.68 -0.34 1.36 0 0 Z " fill="#5132B0" transform="translate(123,81)"/>
<path d="M0 0 C0.99 0 1.98 0 3 0 C2.34 2.97 1.68 5.94 1 9 C-1 6 -1 6 -0.625 2.8125 C-0.41875 1.884375 -0.2125 0.95625 0 0 Z " fill="#5335B2" transform="translate(143,55)"/>
<path d="M0 0 C2.31 0 4.62 0 7 0 C7.33 0.99 7.66 1.98 8 3 C5.36 3 2.72 3 0 3 C0 2.01 0 1.02 0 0 Z " fill="#5131B5" transform="translate(113,54)"/>
<path d="M0 0 C1.32 0.66 2.64 1.32 4 2 C3.34 4.31 2.68 6.62 2 9 C1.01 8.67 0.02 8.34 -1 8 C-0.67 5.36 -0.34 2.72 0 0 Z " fill="#DED8F0" transform="translate(135,55)"/>
<path d="M0 0 C2.31 0 4.62 0 7 0 C6.67 0.99 6.34 1.98 6 3 C4.02 3 2.04 3 0 3 C0 2.01 0 1.02 0 0 Z " fill="#3C1BA1" transform="translate(170,87)"/>
<path d="M0 0 C1.98 0.99 1.98 0.99 4 2 C3.67 3.98 3.34 5.96 3 8 C1.0549 5.08235 0.54723683 3.37462715 0 0 Z " fill="#5030B3" transform="translate(131,55)"/>
<path d="M0 0 C0.33 0.99 0.66 1.98 1 3 C-0.98 3.66 -2.96 4.32 -5 5 C-5.33 4.01 -5.66 3.02 -6 2 C-4.02 1.34 -2.04 0.68 0 0 Z " fill="#5A3CB5" transform="translate(118,80)"/>
<path d="M0 0 C3 1 3 1 6 3 C3.36 3.33 0.72 3.66 -2 4 C-2 3.01 -2 2.02 -2 1 C-1.34 0.67 -0.68 0.34 0 0 Z " fill="#DDD7F1" transform="translate(113,51)"/>
</svg>
