<?xml version="1.0" encoding="UTF-8"?>
<svg version="1.1" xmlns="http://www.w3.org/2000/svg" width="1290" height="1082">
<path d="M0 0 C425.7 0 851.4 0 1290 0 C1290 357.06 1290 714.12 1290 1082 C864.3 1082 438.6 1082 0 1082 C0 724.94 0 367.88 0 0 Z " fill="#FEFEFE" transform="translate(0,0)"/>
<path d="M0 0 C1.19793182 -0.00705963 2.39586365 -0.01411926 3.63009644 -0.02139282 C7.49171999 -0.03895516 11.3531815 -0.04538056 15.21484375 -0.046875 C16.20397703 -0.04731686 16.20397703 -0.04731686 17.2130928 -0.04776764 C66.69740781 -0.05133754 114.94180392 5.81485527 162.15234375 21.203125 C163.18375488 21.53828125 164.21516602 21.8734375 165.27783203 22.21875 C224.85158999 41.76368299 284.46633114 72.46269688 330.9375 115.16796875 C332.91800372 116.98779669 334.92860652 118.75878831 336.96484375 120.515625 C352.50836954 134.12005747 368.47787578 148.3175824 381.171875 164.66015625 C383.05276543 167.07526409 385.01554488 169.400818 387.01513672 171.71801758 C408.69943473 196.88661057 426.70563845 224.648314 442.74804688 253.67333984 C443.91344522 255.77275876 445.09667265 257.85954788 446.29296875 259.94140625 C451.14280876 268.61202358 455.08066769 277.66068549 459.02734375 286.765625 C459.31673828 287.43304718 459.60613281 288.10046936 459.90429688 288.78811646 C462.53013612 294.86289311 465.13280839 300.89252381 467.15234375 307.203125 C467.83757614 307.20455002 468.52280853 307.20597504 469.22880554 307.20744324 C475.74432393 307.22540811 482.25921655 307.2674144 488.77441692 307.33521557 C492.12268355 307.36924425 495.47010624 307.39190123 498.81860352 307.39868164 C502.68431669 307.4080487 506.54864328 307.44921284 510.4140625 307.49609375 C512.18362556 307.49019478 512.18362556 307.49019478 513.98893738 307.48417664 C526.26569475 307.69567754 536.17901436 311.21908916 545 319.8828125 C552.88216501 328.3801011 558.28120968 337.9300262 558.27539158 349.81641102 C558.27738263 350.71811553 558.27937368 351.61982004 558.28142506 352.54884893 C558.27851222 353.53036748 558.27559938 354.51188604 558.27259827 355.52314758 C558.27345269 356.57280911 558.27430712 357.62247064 558.27518743 358.70394009 C558.27683644 362.226228 558.27133028 365.74846843 558.26586914 369.27075195 C558.26558712 371.79362487 558.2657453 374.31649786 558.26631165 376.83937073 C558.26653947 382.27356382 558.26370037 387.70774159 558.25807381 393.14193153 C558.24994406 400.99883924 558.24734207 408.85574113 558.24608582 416.71265259 C558.24389762 429.46021244 558.23724381 442.20776589 558.2277832 454.95532227 C558.21860309 467.33780892 558.21152518 479.72029383 558.20727539 492.1027832 C558.20701267 492.86614045 558.20674994 493.6294977 558.20647926 494.41598699 C558.20517421 498.24555605 558.20391051 502.07512512 558.20266736 505.9046942 C558.19230197 537.6708425 558.17461558 569.43698275 558.15234375 601.203125 C471.51471003 601.24807099 384.87707306 601.29271277 260.88093567 601.33015442 C259.40010925 601.33057277 257.91928283 601.33099113 256.43845642 601.33140948 C225.35560056 601.34017752 194.27274457 601.34832767 163.18988837 601.35576403 C147.5759675 601.35950022 131.96204667 601.36335514 116.34812586 601.36732232 C113.99282311 601.36792007 111.63752036 601.36851443 109.28221762 601.36910864 C73.01337883 601.37828871 36.74454305 601.39001537 0.47570801 601.40911865 C-0.30411909 601.40952935 -1.08394618 601.40994005 -1.8874044 601.41036319 C-14.4605459 601.41700031 -27.03368728 601.42385113 -39.60682865 601.43073032 C-75.82085299 601.45054097 -112.03487501 601.46877172 -148.24890423 601.47654438 C-149.3659513 601.47678529 -149.3659513 601.47678529 -150.50556497 601.47703106 C-166.85341614 601.48052834 -183.20126733 601.48321291 -199.54911876 601.48512795 C-206.126925 601.48591282 -212.70473123 601.48681468 -219.28253746 601.48775673 C-220.00245008 601.48785701 -220.7223627 601.48795729 -221.46409085 601.48806061 C-244.66050612 601.49135 -267.85690415 601.50416339 -291.05331246 601.52197163 C-315.06951117 601.54036442 -339.08568759 601.54816906 -363.10189376 601.54362913 C-376.95243465 601.54134333 -390.80291304 601.54746697 -404.65344267 601.56551763 C-413.89986062 601.57674722 -423.14623752 601.57713012 -432.39265828 601.56862044 C-437.66480535 601.56408104 -442.93683401 601.56432686 -448.2089685 601.57777455 C-453.00571752 601.5899169 -457.80225575 601.58823225 -462.59900155 601.57554493 C-464.32305016 601.57340318 -466.04711428 601.57628625 -467.77114305 601.58483073 C-483.41198765 601.65743018 -496.04085219 599.47493269 -508.03515625 588.703125 C-517.79225674 578.41057387 -520.00884356 566.33683253 -519.96791077 552.68055725 C-519.96876519 551.63327043 -519.96961962 550.5859836 -519.97049993 549.50696081 C-519.97214443 546.00470441 -519.96665021 542.50249611 -519.96118164 539.00024414 C-519.96089952 536.48692832 -519.96105799 533.97361241 -519.96162415 531.46029663 C-519.96185172 526.05287631 -519.95901893 520.64547142 -519.95338631 515.23805428 C-519.94524787 507.41990766 -519.94265368 499.60176687 -519.94139832 491.78361648 C-519.93921148 479.09817264 -519.93256138 466.41273526 -519.9230957 453.72729492 C-519.91391206 441.40698275 -519.90683588 429.08667233 -519.90258789 416.76635742 C-519.90232517 416.00651261 -519.90206244 415.24666781 -519.90179176 414.4637974 C-519.90048669 410.65175368 -519.89922299 406.83970995 -519.89797986 403.02766621 C-519.88761871 371.4194801 -519.86918658 339.81130597 -519.84765625 308.203125 C-489.81765625 308.203125 -459.78765625 308.203125 -428.84765625 308.203125 C-428.51765625 306.223125 -428.18765625 304.243125 -427.84765625 302.203125 C-426.96240234 299.703125 -426.96240234 299.703125 -425.87109375 297.203125 C-425.45520996 296.24841309 -425.03932617 295.29370117 -424.61083984 294.31005859 C-424.15273926 293.28477051 -423.69463867 292.25948242 -423.22265625 291.203125 C-422.7426416 290.12240723 -422.26262695 289.04168945 -421.76806641 287.92822266 C-413.56689376 269.69389346 -405.02751365 251.14188142 -394.19433594 234.30566406 C-392.49781046 231.65691907 -390.83484268 228.98781361 -389.16796875 226.3203125 C-381.55143224 214.20002127 -373.68755847 202.46067229 -364.84765625 191.203125 C-363.91454902 189.99542136 -362.98225607 188.78708813 -362.05078125 187.578125 C-352.97192664 175.84734383 -343.38548316 164.61927815 -333.28759766 153.75634766 C-331.76375315 152.11262118 -330.24833667 150.46142516 -328.734375 148.80859375 C-321.8345959 141.28253525 -314.94070823 133.93095046 -307.19140625 127.26953125 C-304.87023791 125.22303449 -302.61493905 123.11504373 -300.36279297 120.99316406 C-293.76640623 114.79935526 -286.90428163 109.12014463 -279.71191406 103.63476562 C-277.80334682 102.16909795 -275.91439566 100.68074067 -274.02734375 99.1875 C-233.24724067 67.13993459 -186.68355484 42.43316832 -137.84765625 25.203125 C-137.14044434 24.95127441 -136.43323242 24.69942383 -135.70458984 24.43994141 C-131.44649647 22.93336342 -127.16145903 21.54111985 -122.84765625 20.203125 C-122.13802734 19.98092285 -121.42839844 19.7587207 -120.69726562 19.52978516 C-92.50844268 10.79698823 -63.94713627 6.04087922 -34.73828125 2.3671875 C-33.50703522 2.21142746 -33.50703522 2.21142746 -32.25091553 2.05252075 C-21.49583251 0.73511471 -10.83612894 0.04267384 0 0 Z " fill="#D0392A" transform="translate(625.84765625,113.796875)"/>
<path d="M0 0 C306.24 0 612.48 0 928 0 C922.3990755 23.80392912 922.3990755 23.80392912 918.08203125 34.28125 C916.90285147 37.24409883 915.85634331 40.23684405 914.8125 43.25 C896.2424413 95.41498309 867.56871866 145.32727299 831 187 C830.39027344 187.70898438 829.78054688 188.41796875 829.15234375 189.1484375 C819.97306612 199.78164327 810.28025819 209.86266367 800.3125 219.75 C799.2061416 220.85132285 798.1000208 221.95288445 796.99414062 223.0546875 C794.33214353 225.70586585 791.66700511 228.35385845 789 231 C784.98144514 229.13960779 782.10842076 226.47222896 778.9375 223.4375 C766.74990567 211.99280116 753.39339735 201.97939411 740 192 C736.18154656 193.61829693 733.32784192 196.16865436 730.25 198.875 C700.92082669 224.15034217 666.98306688 244.23408498 631.75 260.0625 C630.58533203 260.58650391 629.42066406 261.11050781 628.22070312 261.65039062 C621.32484649 264.69117624 614.36795186 267.36844769 607.25024414 269.84350586 C604.42089008 270.85023989 601.65747876 271.93813425 598.88671875 273.09375 C593.32152759 275.35570895 587.604516 276.92997694 581.8125 278.5 C580.16048584 278.95391113 580.16048584 278.95391113 578.47509766 279.41699219 C576.29646766 280.01439462 574.1171272 280.60921341 571.93701172 281.20117188 C569.47755099 281.87011248 567.02125221 282.54876122 564.56640625 283.234375 C551.00744532 286.96488277 537.33468277 289.39405763 523.42138672 291.30761719 C521.13255119 291.62395635 518.84563535 291.95222154 516.55859375 292.28125 C499.16989342 294.73404682 481.94799991 295.18661648 464.39892578 295.18530273 C461.13691192 295.18749201 457.87523586 295.20573289 454.61328125 295.22460938 C442.66206578 295.25713485 430.97196264 294.79333416 419.11621094 293.26950073 C417.07192721 293.00915997 415.02645784 292.77085861 412.97851562 292.54125977 C396.40784861 290.66158001 380.14394592 288.26567677 364 284 C363.18047852 283.78649902 362.36095703 283.57299805 361.51660156 283.35302734 C355.29928158 281.71231164 349.14350655 279.8972887 343 278 C341.87561523 277.65340332 340.75123047 277.30680664 339.59277344 276.94970703 C321.12207585 271.18599513 303.50154778 264.31316438 286 256 C285.09072754 255.57219238 284.18145508 255.14438477 283.24462891 254.70361328 C248.9935042 238.48819819 217.58700442 216.77540383 189 192 C184.12935156 193.54638458 180.75108527 196.36288496 176.875 199.5625 C176.21411377 200.10044189 175.55322754 200.63838379 174.87231445 201.19262695 C173.53563702 202.28174156 172.20105264 203.37343041 170.86865234 204.46777344 C169.22822634 205.81286275 167.57778749 207.14572138 165.92578125 208.4765625 C160.59413808 212.78142703 155.43810606 217.23464824 150.37109375 221.84765625 C146.95651889 224.94721267 143.48125893 227.97577785 140 231 C137.15984693 229.7082122 135.10301612 228.35216917 132.90307617 226.14599609 C132.32534958 225.57134613 131.74762299 224.99669617 131.15238953 224.40463257 C130.23197624 223.47344101 130.23197624 223.47344101 129.29296875 222.5234375 C128.64934891 221.87935944 128.00572906 221.23528137 127.34260559 220.57168579 C125.98115702 219.20721862 124.62213725 217.84032432 123.26538086 216.47119141 C121.21055985 214.39826306 119.14800013 212.33330021 117.08398438 210.26953125 C115.75734275 208.93796785 114.43115656 207.60595051 113.10546875 206.2734375 C112.49793259 205.66478851 111.89039642 205.05613953 111.26445007 204.42904663 C102.1516242 195.21720823 94.05875128 185.12978657 86 175 C85.37383789 174.21431641 84.74767578 173.42863281 84.10253906 172.61914062 C73.06573871 158.68552769 63.30341951 144.13834208 54 129 C53.41589355 128.05479492 52.83178711 127.10958984 52.22998047 126.13574219 C37.79735395 102.66772029 25.54802262 77.8531074 16 52 C15.47942697 50.62490143 14.95862716 49.24988867 14.4375 47.875 C12.96889909 43.93685232 11.52657004 39.98928022 10.1015625 36.03515625 C9.33893851 33.93388375 8.56190946 31.8378044 7.7734375 29.74609375 C5.39656141 23.33727755 3.34788976 16.93826728 1.6875 10.3125 C1.43033203 9.28733276 1.43033203 9.28733276 1.16796875 8.24145508 C0.4852623 5.41497928 0 2.91953974 0 0 Z " fill="#6E767D" transform="translate(181,715)"/>
<path d="M0 0 C1.30803589 0.00149048 2.61607178 0.00298096 3.96374512 0.0045166 C23.59649953 0.04477598 42.92085291 0.49676818 62.375 3.3125 C63.95474609 3.53728027 63.95474609 3.53728027 65.56640625 3.76660156 C117.82399673 11.46789227 170.71032131 30.99009936 215.375 59.3125 C216.10315918 59.77398437 216.83131836 60.23546875 217.58154297 60.7109375 C237.72082696 73.60007925 256.7317606 87.94002799 274.15625 104.3125 C276.57644338 106.58178063 279.03726854 108.78484368 281.5625 110.9375 C288.74607207 117.14990245 295.42485529 124.0173777 301.58203125 131.2421875 C303.70646824 133.6952411 305.91688637 136.05953147 308.125 138.4375 C330.73278376 163.29923199 348.23308019 192.55331415 364.125 222 C364.46039795 222.61762207 364.7957959 223.23524414 365.14135742 223.87158203 C367.375 228.07148048 367.375 228.07148048 367.375 230.3125 C127.795 230.3125 -111.785 230.3125 -358.625 230.3125 C-357.8135492 226.255246 -357.12365687 223.95701237 -355.2890625 220.42578125 C-354.56710693 219.0322644 -354.56710693 219.0322644 -353.83056641 217.6105957 C-353.30897949 216.62534912 -352.78739258 215.64010254 -352.25 214.625 C-351.70907715 213.59914795 -351.1681543 212.5732959 -350.61083984 211.51635742 C-341.78680681 194.9510185 -331.61034425 179.51746301 -320.625 164.3125 C-320.08665527 163.56629395 -319.54831055 162.82008789 -318.99365234 162.05126953 C-312.65374032 153.31056033 -306.0208129 145.18839198 -298.625 137.3125 C-297.47217698 136.00613505 -296.32580666 134.69403307 -295.1875 133.375 C-285.95093864 122.76925425 -276.4614008 112.32239362 -265.7578125 103.171875 C-264.22638452 101.83678394 -262.72422501 100.46783886 -261.2421875 99.078125 C-254.14760062 92.42827342 -246.62740602 86.61210853 -238.77832031 80.88769531 C-236.62142504 79.30988485 -234.47815263 77.71485407 -232.3359375 76.1171875 C-177.98079937 35.86897944 -113.50768576 11.27804729 -46.625 2.3125 C-45.38830566 2.13372314 -44.15161133 1.95494629 -42.87744141 1.77075195 C-28.62995686 -0.15105952 -14.35262373 -0.04021102 0 0 Z " fill="#FEFDFD" transform="translate(640.625,191.6875)"/>
<path d="M0 0 C252.45 0 504.9 0 765 0 C764.28735491 4.27587056 763.75814247 7.01662846 762.15234375 10.8203125 C761.79382324 11.68430664 761.43530273 12.54830078 761.06591797 13.43847656 C760.71416504 14.2837793 760.36241211 15.12908203 760 16 C759.43384966 17.45381027 758.87243681 18.90947679 758.31640625 20.3671875 C739.89708643 67.97420746 713.70223535 111.45133348 679 149 C678.12730469 149.96421875 677.25460937 150.9284375 676.35546875 151.921875 C670.41838215 158.475734 664.31609153 164.80721611 658 171 C653.52850212 169.42985571 649.71281053 167.04686092 645.75 164.5 C615.3201762 145.28262871 583.5728297 129.77697992 549.90795898 117.11328125 C547.17025796 116.06518145 544.45796531 114.96835087 541.74609375 113.85546875 C537.4559761 112.12886378 533.15748133 110.79568469 528.6875 109.625 C527.11036558 109.20167968 525.5335552 108.7771507 523.95703125 108.3515625 C523.14443848 108.13274414 522.3318457 107.91392578 521.49462891 107.68847656 C518.99032989 106.99733121 516.50075011 106.2675759 514.01171875 105.5234375 C500.8217399 101.59536757 487.53787008 98.48494975 474 96 C473.02135986 95.81453613 472.04271973 95.62907227 471.03442383 95.43798828 C461.59769315 93.80010445 452.23739729 93.56323327 442.6875 93.375 C441.06052858 93.33670687 439.43357498 93.29764913 437.80664062 93.2578125 C433.87124286 93.16308353 429.9357512 93.07861915 426 93 C425.97812622 91.77651855 425.97812622 91.77651855 425.95581055 90.52832031 C425.89399622 87.44153577 425.81971522 84.35534781 425.73754883 81.26904297 C425.6887559 79.30066475 425.65376562 77.33195966 425.61914062 75.36328125 C425.20008058 60.35331234 422.24325081 47.341284 411.75 36.125 C403.67377154 28.54930831 392.76477163 24.04412051 381.6875 23.5625 C370.27404423 23.93380054 359.99955328 28.22542997 351.8125 36.10546875 C339.88143054 48.84802639 338.97688969 63.25239219 338.4375 80 C338.39431641 81.25167969 338.35113281 82.50335937 338.30664062 83.79296875 C338.20121983 86.86188523 338.09909658 89.93087389 338 93 C336.59028931 93.01401855 336.59028931 93.01401855 335.15209961 93.02832031 C316.44355557 93.2460466 298.3080086 93.76841739 280 98 C278.93861816 98.23992676 277.87723633 98.47985352 276.78369141 98.72705078 C216.91768047 112.44939964 160.69236442 136.2663429 110 171 C106.30497444 169.44927108 103.93590563 167.19398135 101.11328125 164.37890625 C100.65197311 163.91951157 100.19066498 163.46011688 99.71537781 162.98680115 C98.738862 162.01164385 97.76485744 161.03396617 96.79321289 160.05395508 C95.3414188 158.5916286 93.87950471 157.14006331 92.41601562 155.68945312 C86.17515703 149.45740987 80.50683897 142.89137587 75 136 C74.06501394 134.89834709 73.12366084 133.80201521 72.171875 132.71484375 C59.55210692 118.24281939 48.97418777 102.37553216 39 86 C38.32493408 84.89543457 38.32493408 84.89543457 37.63623047 83.76855469 C31.93570698 74.39696955 26.70787525 64.87520831 21.95898438 54.98730469 C21.0135653 53.02811138 20.04743316 51.08027646 19.078125 49.1328125 C13.27445289 37.31003224 8.68297226 25.05054957 4.05615234 12.72949219 C3.16428312 10.42456895 2.21639899 8.16904555 1.20703125 5.9140625 C0 3 0 3 0 0 Z " fill="#FEFEFE" transform="translate(262,715)"/>
<path d="M0 0 C1.877089 -0.0146228 1.877089 -0.0146228 3.792099 -0.02954102 C7.83539634 -0.05452654 11.87851493 -0.0679802 15.921875 -0.07421875 C16.95604742 -0.07616556 16.95604742 -0.07616556 18.01111221 -0.0781517 C51.0942663 -0.1253245 83.26623886 2.25307809 115.671875 9.23828125 C116.68459473 9.45129883 117.69731445 9.66431641 118.74072266 9.88378906 C128.30945501 11.90649784 137.77588722 13.99287531 147 17.2890625 C149.80532057 18.28568954 152.63034159 19.14168326 155.484375 19.98828125 C217.40958285 39.03653402 276.62573382 70.33128397 324.53515625 114.28125 C326.44817804 116.0333961 328.39202783 117.73528891 330.359375 119.42578125 C342.21424435 129.8077009 353.29821926 140.78692954 363.96533203 152.38330078 C365.4011666 153.94402625 366.84603454 155.49643432 368.29296875 157.046875 C387.96631276 178.40349978 404.98001143 203.25088849 419.671875 228.23828125 C420.13142578 229.01671387 420.59097656 229.79514648 421.06445312 230.59716797 C450.671875 281.04889547 450.671875 281.04889547 450.671875 293.23828125 C433.841875 293.23828125 417.011875 293.23828125 399.671875 293.23828125 C397.031875 287.95828125 394.391875 282.67828125 391.671875 277.23828125 C380.34746928 254.62623736 367.15324333 233.24240372 351.671875 213.23828125 C350.22460938 211.34570312 350.22460938 211.34570312 348.77734375 209.453125 C334.17628274 190.5004462 318.09973876 171.78356378 299.90625 156.19921875 C297.26472157 153.88095429 294.72850821 151.46230825 292.171875 149.05078125 C285.7678851 143.10831252 278.86939252 137.92932138 271.80908203 132.79736328 C269.65758402 131.22785605 267.52145343 129.63908577 265.38671875 128.046875 C232.58192329 103.74580419 195.96436662 85.17610423 157.671875 71.23828125 C155.99206543 70.61626831 155.99206543 70.61626831 154.27832031 69.98168945 C146.20829603 67.03207649 138.09982342 64.50777303 129.796875 62.30078125 C129.16746002 62.13286072 128.53804504 61.96494019 127.88955688 61.79193115 C107.97314157 56.51469086 87.46909228 52.34909103 66.94125366 50.45184326 C64.53665793 50.22555652 62.13413261 49.98181567 59.73120117 49.73852539 C45.48189234 48.3474531 31.35920215 47.87684505 17.046875 47.92578125 C15.41493698 47.92801697 15.41493698 47.92801697 13.75003052 47.93029785 C-3.47815641 47.97256361 -20.2638022 48.74171944 -37.328125 51.23828125 C-38.88249268 51.44710937 -38.88249268 51.44710937 -40.46826172 51.66015625 C-86.05028889 57.78978605 -129.34342701 72.6899231 -170.328125 93.23828125 C-171.18631836 93.66608887 -172.04451172 94.09389648 -172.92871094 94.53466797 C-190.98117286 103.58963345 -208.13207489 114.17696373 -224.328125 126.23828125 C-225.37355469 127.00914062 -226.41898438 127.78 -227.49609375 128.57421875 C-249.59402158 144.98662142 -271.54185526 163.19162621 -289.50390625 184.140625 C-290.7478204 185.57099309 -292.01746569 186.9792885 -293.30859375 188.3671875 C-299.93854574 195.50434893 -305.77975121 203.16319009 -311.60888672 210.95410156 C-313.28036878 213.17483234 -314.97538957 215.375582 -316.67578125 217.57421875 C-332.26966642 237.95410072 -344.88246394 260.31900392 -356.328125 283.23828125 C-357.978125 286.53828125 -359.628125 289.83828125 -361.328125 293.23828125 C-378.158125 293.23828125 -394.988125 293.23828125 -412.328125 293.23828125 C-408.94652329 281.96627555 -408.94652329 281.96627555 -406.61328125 276.91015625 C-406.09854248 275.79237793 -405.58380371 274.67459961 -405.0534668 273.52294922 C-404.23036011 271.77328857 -404.23036011 271.77328857 -403.390625 269.98828125 C-403.10434235 269.37712463 -402.81805969 268.76596802 -402.52310181 268.1362915 C-389.48200682 240.34899446 -373.89474738 213.7053924 -355.328125 189.23828125 C-354.86680176 188.62678223 -354.40547852 188.0152832 -353.93017578 187.38525391 C-351.09966968 183.64029238 -348.22578337 179.93166964 -345.328125 176.23828125 C-344.31685547 174.93503906 -344.31685547 174.93503906 -343.28515625 173.60546875 C-338.97767807 168.12009733 -334.40686968 162.93917185 -329.68359375 157.80859375 C-327.77776486 155.72893304 -325.91619441 153.62729402 -324.078125 151.48828125 C-308.86754079 134.03765851 -308.86754079 134.03765851 -300.0390625 126.69921875 C-298.25354319 125.17459724 -296.6445414 123.55337761 -295.015625 121.86328125 C-291.29797494 118.07788358 -287.21291697 114.81375683 -283.08203125 111.4921875 C-280.61366821 109.47198115 -278.24566487 107.38816339 -275.890625 105.23828125 C-271.19471413 101.03014985 -266.22199434 97.27008477 -261.12988281 93.55566406 C-259.1556306 92.11215933 -257.19147094 90.65541303 -255.2265625 89.19921875 C-244.57177879 81.35013545 -233.65287802 74.08300353 -222.328125 67.23828125 C-221.3906543 66.66883789 -220.45318359 66.09939453 -219.48730469 65.51269531 C-193.3592671 49.74680963 -166.10599811 36.43203662 -137.328125 26.23828125 C-136.52487793 25.94808105 -135.72163086 25.65788086 -134.89404297 25.35888672 C-114.25170085 17.93335893 -92.76371177 12.78991534 -71.328125 8.23828125 C-70.05195312 7.96371094 -68.77578125 7.68914062 -67.4609375 7.40625 C-58.39148694 5.58260779 -49.24273742 4.34615311 -40.078125 3.11328125 C-38.81033203 2.9423999 -37.54253906 2.77151855 -36.23632812 2.59545898 C-35.00333984 2.43376221 -33.77035156 2.27206543 -32.5 2.10546875 C-31.4078418 1.96222168 -30.31568359 1.81897461 -29.19042969 1.67138672 C-19.44920474 0.5790395 -9.80131563 0.06358808 0 0 Z " fill="#FEFEFE" transform="translate(625.328125,128.76171875)"/>
<path d="M0 0 C3.34830631 0.63472908 6.69638832 1.27063387 10.04443359 1.90673828 C10.98496078 2.08501663 11.92548798 2.26329498 12.89451599 2.44697571 C30.49812431 5.79367113 47.88914217 9.54007145 64.8762207 15.30444336 C67.15935755 16.05219102 69.45794943 16.72264393 71.765625 17.390625 C77.68739785 19.15280757 83.42842526 21.33208679 89.1875 23.5625 C90.32171387 24.00158691 91.45592773 24.44067383 92.62451172 24.89306641 C168.6944966 54.60243907 168.6944966 54.60243907 187 75 C182.9782447 78.17157914 178.9515921 81.33677364 174.91943359 84.49511719 C173.71808324 85.4370052 172.51772474 86.38016122 171.31884766 87.32519531 C149.44095117 104.55986817 125.85519791 118.49421195 101 131 C100.19771973 131.40847168 99.39543945 131.81694336 98.56884766 132.23779297 C82.32498341 140.46493593 65.21062435 146.67986737 47.92773438 152.35595703 C46.23938718 152.92002237 44.56546658 153.52689781 42.89453125 154.140625 C21.51268985 161.83700391 -1.52653008 166.03456178 -24 169 C-25.22074219 169.17805176 -26.44148438 169.35610352 -27.69921875 169.53955078 C-40.9546225 171.34543403 -54.20679557 171.30396009 -67.56445312 171.26074219 C-71.46500471 171.25009552 -75.36508802 171.26065208 -79.265625 171.2734375 C-100.28242611 171.2862268 -121.40336132 170.67754734 -142.125 166.875 C-143.30690918 166.66327148 -144.48881836 166.45154297 -145.70654297 166.23339844 C-184.03411515 159.1005876 -221.48030924 147.20980233 -256.04541016 129.02001953 C-258.15891811 127.91706722 -260.28723636 126.84661575 -262.41796875 125.77734375 C-289.38884142 112.0997025 -313.78450253 94.26095381 -337 75 C-335.88476525 71.65429576 -335.46551171 71.36366867 -332.625 69.57421875 C-331.53832031 68.88501343 -331.53832031 68.88501343 -330.4296875 68.18188477 C-329.22699219 67.44216431 -329.22699219 67.44216431 -328 66.6875 C-326.73542969 65.90234009 -326.73542969 65.90234009 -325.4453125 65.10131836 C-298.23893577 48.38566135 -269.89877932 34.22476296 -240 23 C-239.11763672 22.66774414 -238.23527344 22.33548828 -237.32617188 21.99316406 C-225.34970918 17.53053856 -213.21193017 13.96255417 -200.84716797 10.74707031 C-197.93565827 9.98311733 -195.03211159 9.19332272 -192.12890625 8.3984375 C-164.86283067 1 -164.86283067 1 -152 1 C-152 41.26 -152 81.52 -152 123 C-123.1353125 122.8453125 -123.1353125 122.8453125 -93.6875 122.6875 C-84.59707153 122.65015747 -84.59707153 122.65015747 -75.32299805 122.61206055 C-69.85720182 122.575466 -69.85720182 122.575466 -64.39143372 122.5349884 C-61.97028016 122.51891309 -59.54908414 122.50857475 -57.12788391 122.50288391 C-53.44529753 122.49308716 -49.76325947 122.46468208 -46.08081055 122.43237305 C-44.48197918 122.43451199 -44.48197918 122.43451199 -42.8508482 122.43669415 C-31.07389004 122.29001213 -19.45947373 119.57084397 -10.9609375 110.92578125 C-2.92356961 101.12703273 -0.88435918 91.55690502 -0.79467773 79.12719727 C-0.78477814 78.26786087 -0.77487854 77.40852448 -0.76467896 76.52314758 C-0.73328351 73.7042611 -0.70839404 70.88535781 -0.68359375 68.06640625 C-0.66300523 66.1034249 -0.64200827 64.14044779 -0.62062073 62.17747498 C-0.56559605 57.02698213 -0.51610081 51.87645058 -0.46777344 46.72589111 C-0.41741473 41.46371034 -0.36180388 36.20158533 -0.30664062 30.93945312 C-0.19929905 20.62634979 -0.0978014 10.31319791 0 0 Z " fill="#FEFEFE" transform="translate(720,823)"/>
<path d="M0 0 C1.19793182 -0.00705963 2.39586365 -0.01411926 3.63009644 -0.02139282 C7.49171999 -0.03895516 11.3531815 -0.04538056 15.21484375 -0.046875 C16.20397703 -0.04731686 16.20397703 -0.04731686 17.2130928 -0.04776764 C66.69740781 -0.05133754 114.94180392 5.81485527 162.15234375 21.203125 C163.18375488 21.53828125 164.21516602 21.8734375 165.27783203 22.21875 C224.85158999 41.76368299 284.46633114 72.46269688 330.9375 115.16796875 C332.91800372 116.98779669 334.92860652 118.75878831 336.96484375 120.515625 C352.50836954 134.12005747 368.47787578 148.3175824 381.171875 164.66015625 C383.05276543 167.07526409 385.01554488 169.400818 387.01513672 171.71801758 C408.69943473 196.88661057 426.70563845 224.648314 442.74804688 253.67333984 C443.91344522 255.77275876 445.09667265 257.85954788 446.29296875 259.94140625 C451.13266119 268.5938816 455.07656129 277.62224828 459.02734375 286.703125 C459.31673828 287.36627716 459.60613281 288.02942932 459.90429688 288.712677 C460.74011041 290.63416163 461.56870988 292.55857747 462.39453125 294.484375 C462.87776855 295.60908203 463.36100586 296.73378906 463.85888672 297.89257812 C465.17187476 301.25311376 466.16116997 304.73401677 467.15234375 308.203125 C461.54234375 308.203125 455.93234375 308.203125 450.15234375 308.203125 C449.38664062 306.36427734 449.38664062 306.36427734 448.60546875 304.48828125 C429.15600318 258.18979956 403.6993531 212.79535953 369.41796875 175.6796875 C367.52060276 173.60567019 365.66552663 171.5068012 363.8203125 169.38671875 C348.88185911 152.2754719 332.59820442 136.7302685 315.15234375 122.203125 C314.53423828 121.68540527 313.91613281 121.16768555 313.27929688 120.63427734 C270.44056891 84.85197944 221.06708177 58.83093896 168.65234375 40.140625 C166.80394897 39.47933594 166.80394897 39.47933594 164.91821289 38.8046875 C156.42650767 35.83646751 147.85996705 33.44600623 139.15234375 31.203125 C136.68217173 30.52647937 134.21211981 29.84939511 131.7421875 29.171875 C94.53114805 19.28112759 56.88544376 15.86176641 18.4865036 15.77100754 C16.50810255 15.76574017 14.52971468 15.75610312 12.55133057 15.74636841 C-19.60128947 15.64788825 -51.31231147 19.25528277 -82.60058594 26.67773438 C-84.93130756 27.22268363 -87.26730987 27.73796682 -89.60546875 28.25 C-151.90766699 42.14442756 -210.0034143 70.92696198 -260.84765625 109.203125 C-261.40259766 109.61771973 -261.95753906 110.03231445 -262.52929688 110.45947266 C-275.06263907 119.83717798 -286.80419158 130.08062378 -298.26318359 140.73632812 C-299.98790871 142.33296117 -301.72381427 143.9168689 -303.4609375 145.5 C-311.59616498 152.93040614 -311.59616498 152.93040614 -319.01953125 161.05859375 C-320.99766699 163.37909913 -323.06062072 165.6007437 -325.14355469 167.8269043 C-330.98971287 174.07889505 -336.53824566 180.48406168 -341.84765625 187.203125 C-342.34990723 187.83283203 -342.8521582 188.46253906 -343.36962891 189.11132812 C-361.42963212 211.78364394 -376.8580241 235.62067744 -390.68603516 261.07666016 C-391.7914279 263.10019331 -392.91696339 265.1111792 -394.046875 267.12109375 C-401.36598749 280.33223942 -407.03428001 294.28446615 -412.84765625 308.203125 C-418.12765625 308.203125 -423.40765625 308.203125 -428.84765625 308.203125 C-428.11461035 303.80484958 -427.56981527 301.09460339 -425.87109375 297.203125 C-425.45520996 296.24841309 -425.03932617 295.29370117 -424.61083984 294.31005859 C-424.15273926 293.28477051 -423.69463867 292.25948242 -423.22265625 291.203125 C-422.7426416 290.12240723 -422.26262695 289.04168945 -421.76806641 287.92822266 C-413.56689376 269.69389346 -405.02751365 251.14188142 -394.19433594 234.30566406 C-392.49781046 231.65691907 -390.83484268 228.98781361 -389.16796875 226.3203125 C-381.55143224 214.20002127 -373.68755847 202.46067229 -364.84765625 191.203125 C-363.91454902 189.99542136 -362.98225607 188.78708813 -362.05078125 187.578125 C-352.97192664 175.84734383 -343.38548316 164.61927815 -333.28759766 153.75634766 C-331.76375315 152.11262118 -330.24833667 150.46142516 -328.734375 148.80859375 C-321.8345959 141.28253525 -314.94070823 133.93095046 -307.19140625 127.26953125 C-304.87023791 125.22303449 -302.61493905 123.11504373 -300.36279297 120.99316406 C-293.76640623 114.79935526 -286.90428163 109.12014463 -279.71191406 103.63476562 C-277.80334682 102.16909795 -275.91439566 100.68074067 -274.02734375 99.1875 C-233.24724067 67.13993459 -186.68355484 42.43316832 -137.84765625 25.203125 C-137.14044434 24.95127441 -136.43323242 24.69942383 -135.70458984 24.43994141 C-131.44649647 22.93336342 -127.16145903 21.54111985 -122.84765625 20.203125 C-122.13802734 19.98092285 -121.42839844 19.7587207 -120.69726562 19.52978516 C-92.50844268 10.79698823 -63.94713627 6.04087922 -34.73828125 2.3671875 C-33.50703522 2.21142746 -33.50703522 2.21142746 -32.25091553 2.05252075 C-21.49583251 0.73511471 -10.83612894 0.04267384 0 0 Z " fill="#6E767D" transform="translate(625.84765625,113.796875)"/>
<path d="M0 0 C1.10870453 -0.00067474 2.21740906 -0.00134949 3.35971069 -0.00204468 C47.71072105 0.04066308 91.23894733 5.98856679 133.375 20.25 C134.57020264 20.64590332 134.57020264 20.64590332 135.78955078 21.04980469 C190.75856611 39.28204793 242.4375539 69.14281203 284.75195312 108.74023438 C286.8354593 110.67832135 288.94252397 112.58960901 291.05029297 114.5012207 C298.97156621 121.697379 306.66780684 129.07553353 313.62109375 137.22265625 C314.83725179 138.62841577 316.08176501 140.00994733 317.34765625 141.37109375 C323.98109139 148.51016279 329.82439269 156.17192363 335.65576172 163.96582031 C337.32724378 166.18655109 339.02226457 168.38730075 340.72265625 170.5859375 C358.16996749 193.38808975 374.04796733 219.43341632 384.375 246.25 C378.765 246.25 373.155 246.25 367.375 246.25 C366.28445313 244.10757813 366.28445313 244.10757813 365.171875 241.921875 C351.83926755 215.92228196 336.70781617 191.06275911 318.375 168.25 C317.64152344 167.32445312 316.90804687 166.39890625 316.15234375 165.4453125 C310.95929614 158.97918973 305.44123123 152.85133792 299.79541016 146.78369141 C298.3585519 145.23224012 296.93345329 143.67078345 295.51171875 142.10546875 C288.51673662 134.40653607 281.45038117 126.92012836 273.54296875 120.14453125 C271.99926787 118.79553138 270.48365923 117.4140945 268.98828125 116.01171875 C261.89476433 109.36353473 254.37586914 103.54848767 246.52832031 97.82519531 C244.37142504 96.24738485 242.22815263 94.65235407 240.0859375 93.0546875 C193.44077295 58.50155352 136.6240195 33.60755287 79.375 23.25 C78.37984375 23.06743652 77.3846875 22.88487305 76.359375 22.69677734 C73.22189609 22.13165669 70.08130095 21.59126258 66.9375 21.0625 C66.03459229 20.9073291 65.13168457 20.7521582 64.20141602 20.59228516 C43.41917538 17.29545709 22.43559984 16.83855932 1.4375 16.875 C0.14174042 16.8762085 -1.15401917 16.87741699 -2.48904419 16.87866211 C-22.50324886 16.92919719 -41.91859257 17.51880072 -61.625 21.25 C-62.33110413 21.38339783 -63.03720825 21.51679565 -63.76470947 21.65423584 C-84.00739112 25.51549897 -103.74974956 30.64208355 -123.30517578 37.14624023 C-125.62217613 37.91658577 -127.94389707 38.67281405 -130.26904297 39.41821289 C-139.09225683 42.27613965 -147.62555533 45.58593936 -156.125 49.3125 C-156.76708405 49.59245819 -157.40916809 49.87241638 -158.07070923 50.16085815 C-176.77737099 58.33960211 -194.58041526 67.71997502 -211.64599609 78.94824219 C-213.35665784 80.07348872 -215.07778989 81.1827876 -216.80078125 82.2890625 C-234.34164612 93.69183773 -250.78573438 106.58806585 -266.09130859 120.82958984 C-267.64275988 122.2664481 -269.20421655 123.69154671 -270.76953125 125.11328125 C-278.46528285 132.10537316 -285.94498412 139.17071278 -292.72265625 147.0703125 C-294.90943478 149.57590269 -297.17403875 152.00101285 -299.4375 154.4375 C-304.88610946 160.42768811 -309.81527261 166.74620607 -314.625 173.25 C-315.1293457 173.92981934 -315.63369141 174.60963867 -316.15332031 175.31005859 C-332.6639945 197.64418725 -347.1674191 220.91111917 -358.625 246.25 C-364.565 246.25 -370.505 246.25 -376.625 246.25 C-369.28592598 227.43739624 -359.40013631 210.28943062 -348.625 193.25 C-348.04153809 192.3228418 -348.04153809 192.3228418 -347.44628906 191.37695312 C-335.19892693 172.04404393 -320.78631058 153.70055079 -305.171875 136.98046875 C-302.78091984 134.41715946 -300.44855911 131.81180346 -298.125 129.1875 C-291.38677553 121.6898692 -284.30349886 114.51934651 -276.62890625 107.9765625 C-274.37266614 106.03258954 -272.19136107 104.01676482 -270 102 C-263.79516273 96.41658801 -257.25962611 91.30510626 -250.625 86.25 C-249.9222998 85.71213867 -249.21959961 85.17427734 -248.49560547 84.62011719 C-229.27776504 69.97513291 -209.03177403 57.43041285 -187.625 46.25 C-186.74408691 45.7849707 -185.86317383 45.31994141 -184.95556641 44.84082031 C-138.36887921 20.35217731 -87.74926689 6.98448857 -35.625 1.25 C-34.26012451 1.09096191 -34.26012451 1.09096191 -32.86767578 0.92871094 C-21.95966091 -0.17695161 -10.95172826 0.00598627 0 0 Z " fill="#6E767D" transform="translate(640.625,175.75)"/>
<path d="M0 0 C39.93 0 79.86 0 121 0 C121.103125 14.664375 121.20625 29.32875 121.3125 44.4375 C121.35802002 49.05419678 121.40354004 53.67089355 121.45043945 58.42749023 C121.47302246 64.09973145 121.47302246 64.09973145 121.47721863 66.76185608 C121.48485667 68.60652205 121.50235925 70.45116429 121.52787781 72.29566956 C121.79856163 92.90543762 121.79856163 92.90543762 114.55683899 100.51683044 C108.03663457 106.44289087 102.20729868 107.43614838 93.77197266 107.34057617 C92.22458688 107.34111858 92.22458688 107.34111858 90.64594078 107.34167194 C87.31844818 107.3394391 83.9914645 107.31662197 80.6640625 107.29296875 C78.60506432 107.28855596 76.54606277 107.28549662 74.48706055 107.28381348 C66.86632226 107.26810732 59.24565609 107.22622354 51.625 107.1875 C26.070625 107.0946875 26.070625 107.0946875 0 107 C0 71.69 0 36.38 0 0 Z " fill="#FDFDFE" transform="translate(584,823)"/>
<path d="M0 0 C16.5 0 33 0 50 0 C45.49295338 18.02818646 45.49295338 18.02818646 43.3359375 23.97265625 C43.10249634 24.62014328 42.86905518 25.26763031 42.62854004 25.93473816 C41.88678615 27.9809225 41.13219486 30.02198428 40.375 32.0625 C39.98299408 33.12942078 39.98299408 33.12942078 39.58306885 34.21789551 C34.86985671 47.03248806 29.70619542 59.59301491 24 72 C23.40952881 73.30420898 23.40952881 73.30420898 22.80712891 74.63476562 C1.4155211 121.7750449 -29.16768516 165.66617443 -66.05078125 202.01953125 C-68.54706267 204.55583322 -70.7866745 207.21549373 -73 210 C-76.90759134 208.66786659 -79.29758259 207.04964566 -82.25 204.1875 C-87.53481967 199.27675642 -93.17282915 194.94167315 -98.93457031 190.60620117 C-103.05258873 187.50531236 -107.07006739 184.33673523 -111 181 C-109.54811406 177.64956603 -107.7180341 175.49513804 -105.11328125 172.953125 C-104.33919922 172.19 -103.56511719 171.426875 -102.76757812 170.640625 C-101.95740234 169.85171875 -101.14722656 169.0628125 -100.3125 168.25 C-94.6240645 162.6867379 -89.15701705 157.06053755 -84 151 C-83.154375 150.03578125 -82.30875 149.0715625 -81.4375 148.078125 C-57.78424124 120.6342799 -39.29803 90.24562859 -23 58 C-22.61714844 57.24509277 -22.23429688 56.49018555 -21.83984375 55.71240234 C-15.9666503 44.02290523 -11.41705749 31.88624965 -6.95068359 19.60107422 C-6.1254417 17.343209 -5.28084105 15.09433835 -4.42578125 12.84765625 C-2.85190815 8.60035486 -1.43236328 4.29708984 0 0 Z " fill="#FDFEFE" transform="translate(1043,715)"/>
<path d="M0 0 C16.5 0 33 0 50 0 C51.32 4.29 52.64 8.58 54 13 C55.29309118 16.35993874 56.61706806 19.67907324 58 23 C58.82891769 25.07077729 59.65560229 27.14244938 60.48046875 29.21484375 C78.45294583 73.98204794 102.33358914 114.50920888 134 151 C134.59941406 151.69996094 135.19882812 152.39992188 135.81640625 153.12109375 C143.52394154 162.05440574 151.56182047 170.75359728 160 179 C158.66227513 182.06536215 157.30808776 183.84885671 154.69140625 185.91796875 C154.03188965 186.44583984 153.37237305 186.97371094 152.69287109 187.51757812 C151.98984863 188.06865234 151.28682617 188.61972656 150.5625 189.1875 C149.10794238 190.34749258 147.65351582 191.50764953 146.19921875 192.66796875 C145.48427246 193.23435059 144.76932617 193.80073242 144.03271484 194.38427734 C141.29136598 196.56326447 138.58195838 198.77842726 135.875 201 C135.02035156 201.69996094 134.16570312 202.39992188 133.28515625 203.12109375 C130.51230999 205.40098956 127.7516412 207.69457088 125 210 C122.03821661 208.6651174 119.94246956 207.19867264 117.64453125 204.91015625 C117.02658691 204.29615967 116.40864258 203.68216309 115.77197266 203.04956055 C115.12534668 202.39383057 114.4787207 201.73810059 113.8125 201.0625 C113.1426709 200.38807861 112.4728418 199.71365723 111.78271484 199.01879883 C107.23516339 194.38829494 103.04957146 189.62912051 99.03125 184.53125 C96.98721329 181.98406579 94.83854271 179.58810266 92.625 177.1875 C58.23985601 139.29245377 31.79206145 91.77046637 14 44 C13.54109375 42.78699219 13.0821875 41.57398438 12.609375 40.32421875 C10.68051123 35.17447029 8.83054734 29.99790384 7 24.8125 C6.65710938 23.86052734 6.31421875 22.90855469 5.9609375 21.92773438 C3.38499159 14.60791861 1.77077274 7.67334855 0 0 Z " fill="#FEFEFE" transform="translate(196,715)"/>
<path d="M0 0 C2.10615134 1.62568557 4.14220656 3.28171347 6.125 5.0546875 C4.60603632 9.48638923 2.19860191 13.08492826 -0.5 16.8671875 C-0.92023438 17.46466797 -1.34046875 18.06214844 -1.7734375 18.67773438 C-2.80279728 20.13989315 -3.8382823 21.59773649 -4.875 23.0546875 C-5.54144531 22.67957031 -6.20789063 22.30445313 -6.89453125 21.91796875 C-19.76190969 14.77342436 -31.73625576 8.31480813 -46.875 10.0546875 C-52.11216714 11.68605106 -55.80194352 13.87943517 -59.5 17.9296875 C-61.62248722 22.75352209 -61.46750783 26.20310054 -59.875 31.1796875 C-54.82972177 38.43227496 -46.39817434 40.38265427 -38.25 42.5546875 C-36.10727644 43.15471505 -33.96534192 43.7575677 -31.82421875 44.36328125 C-30.7986084 44.65187012 -29.77299805 44.94045898 -28.71630859 45.23779297 C-15.81695539 48.94644014 -1.4721123 53.18419953 6.125 65.0546875 C11.37601189 74.91596281 11.68499733 85.74258619 8.5625 96.3671875 C4.38966437 107.30088923 -3.20237352 114.61523425 -13.8203125 119.375 C-31.93089609 125.61551435 -53.04546439 123.28702136 -70.16821289 115.265625 C-77.17463769 111.82116238 -83.67780167 107.82176314 -89.875 103.0546875 C-89.28746271 99.9796167 -88.42026011 98.17567613 -86.37109375 95.8203125 C-85.87802734 95.24667969 -85.38496094 94.67304687 -84.87695312 94.08203125 C-84.36068359 93.49550781 -83.84441406 92.90898438 -83.3125 92.3046875 C-82.79236328 91.70269531 -82.27222656 91.10070312 -81.73632812 90.48046875 C-80.45543726 88.99980591 -79.16603688 87.52651208 -77.875 86.0546875 C-74.19307314 87.37290823 -71.41370274 89.00061824 -68.3125 91.3671875 C-56.93505637 99.4458457 -43.48827673 103.39857992 -29.51953125 101.66015625 C-23.84183338 100.36024019 -18.77269917 98.06401603 -14.75 93.8046875 C-12.99019953 88.27388602 -13.27668578 83.7641567 -15.1875 78.3046875 C-20.61095831 70.10020942 -34.37785582 68.40824589 -43.1875 66.1796875 C-73.39098841 58.2548543 -73.39098841 58.2548543 -81.1875 45.6171875 C-86.09344603 35.26019033 -86.65330835 24.01847106 -82.875 13.1796875 C-78.69716487 3.62699706 -72.43922458 -2.82084214 -62.875 -6.9453125 C-42.79723548 -14.74059465 -17.91686297 -12.12309478 0 0 Z " fill="#FEFBFB" transform="translate(349.875,515.9453125)"/>
<path d="M0 0 C9.57023475 8.57831023 13.84635435 20.9632364 15.84765625 33.32421875 C15.84765625 38.27421875 15.84765625 43.22421875 15.84765625 48.32421875 C-19.29734375 48.81921875 -19.29734375 48.81921875 -55.15234375 49.32421875 C-53.08149883 57.74510818 -53.08149883 57.74510818 -48.71484375 63.76171875 C-48.13863281 64.37917969 -47.56242187 64.99664063 -46.96875 65.6328125 C-40.26724658 71.87313719 -33.17387157 72.81692927 -24.2421875 72.63671875 C-15.53693735 71.7562889 -8.69731804 67.95027114 -2.15234375 62.32421875 C1.37003672 63.88789232 4.11889619 66.01917764 7.09765625 68.44921875 C7.9896875 69.17367187 8.88171875 69.898125 9.80078125 70.64453125 C10.47625 71.19882812 11.15171875 71.753125 11.84765625 72.32421875 C8.60766095 79.90108277 0.84539515 84.96464655 -6.4296875 88.29296875 C-20.88218145 93.76708411 -36.19006357 94.15842072 -50.6171875 88.328125 C-63.48010479 81.79493854 -71.85217732 71.15002818 -76.390625 57.70703125 C-76.64199219 56.92070313 -76.89335937 56.134375 -77.15234375 55.32421875 C-77.48234375 54.33421875 -77.81234375 53.34421875 -78.15234375 52.32421875 C-79.07250684 40.56770749 -79.55344689 28.05912157 -74.15234375 17.32421875 C-73.72824219 16.46054687 -73.30414063 15.596875 -72.8671875 14.70703125 C-66.05719034 2.22519802 -55.84058589 -4.89949381 -42.67578125 -9.55078125 C-27.33297131 -13.56780785 -12.27025328 -9.55342769 0 0 Z " fill="#FEFBFB" transform="translate(452.15234375,546.67578125)"/>
<path d="M0 0 C7.92 0 15.84 0 24 0 C28.49958805 8.9991761 28.49958805 8.9991761 29.81176758 12.56982422 C30.25792168 13.77310867 30.25792168 13.77310867 30.71308899 15.0007019 C31.17415291 16.26492477 31.17415291 16.26492477 31.64453125 17.5546875 C31.97740646 18.45510773 32.31028168 19.35552795 32.65324402 20.28323364 C33.71064299 23.1455872 34.76190689 26.01014226 35.8125 28.875 C41.79320661 45.13056962 41.79320661 45.13056962 47.94921875 61.3203125 C48.24310989 62.08511932 48.53700104 62.84992615 48.83979797 63.63790894 C49.98878528 67.07613397 49.98878528 67.07613397 52 70 C52.25420715 69.27052155 52.50841431 68.54104309 52.77032471 67.78945923 C55.18025159 60.87518901 57.59238624 53.96169474 60.0069313 47.04903603 C61.24784177 43.49615986 62.48793175 39.94300198 63.72607422 36.38916016 C64.92361028 32.95197209 66.12339608 29.51557664 67.32466888 26.07969284 C67.77989717 24.77642501 68.23434866 23.47288556 68.68796539 22.16905594 C69.32923217 20.32631584 69.97365855 18.48467624 70.61816406 16.64306641 C70.98234436 15.59937897 71.34652466 14.55569153 71.72174072 13.4803772 C73.38542036 8.9505977 75.20780496 4.48048761 77 0 C84.92 0 92.84 0 101 0 C91.86895259 24.39488787 82.30854992 48.61172152 72.66127014 72.80662537 C70.50925081 78.20408402 68.36410364 83.6039765 66.23968506 89.01235962 C65.04318342 92.05325726 63.83328376 95.08876565 62.625 98.125 C62.24021484 99.11580566 61.85542969 100.10661133 61.45898438 101.12744141 C57.02027714 112.17136774 51.61188385 121.52367908 40.828125 127.12890625 C36.82858359 128.3608092 33.03935344 128.38195218 28.875 128.375 C28.03203369 128.37556396 27.18906738 128.37612793 26.32055664 128.37670898 C19.62680886 128.25911699 14.0209418 127.02871618 8 124 C7.34 123.67 6.68 123.34 6 123 C7.8331267 117.00067626 10.07321751 111.55079437 13 106 C13.928125 106.33 14.85625 106.66 15.8125 107 C21.19161834 108.49784393 27.83595662 109.6322446 32.96875 106.984375 C35.48410404 104.9375673 37.20560659 102.69159012 39 100 C38.73143429 94.20609785 36.10963407 88.97618767 33.88671875 83.703125 C33.47589554 82.71431335 33.06507233 81.72550171 32.64179993 80.70672607 C31.32963931 77.55197048 30.00881863 74.40092939 28.6875 71.25 C27.37886424 68.11255845 26.07199793 64.97438425 24.76533508 61.83612061 C23.9532616 59.88758706 23.13970615 57.93967021 22.3243866 55.99249268 C20.11804247 50.71858644 17.95550181 45.4300379 15.84417725 40.11734009 C14.77740635 37.44169728 13.6752781 34.78180584 12.5625 32.125 C12.14097656 31.11695313 11.71945312 30.10890625 11.28515625 29.0703125 C10.86105469 28.05710937 10.43695312 27.04390625 10 26 C8.75503338 23.01363147 7.5111478 20.02682549 6.26953125 17.0390625 C5.37838436 14.90579395 4.47923991 12.77585711 3.57421875 10.6484375 C3.11660156 9.56820312 2.65898438 8.48796875 2.1875 7.375 C1.76855469 6.39273438 1.34960938 5.41046875 0.91796875 4.3984375 C0 2 0 2 0 0 Z " fill="#FEFBFB" transform="translate(874,538)"/>
<path d="M0 0 C7.26 0 14.52 0 22 0 C22.0093457 1.79026611 22.01869141 3.58053223 22.02832031 5.42504883 C22.06402914 11.38035505 22.11794049 17.33527067 22.18390274 23.29030323 C22.2231936 26.89627046 22.25547094 30.50200023 22.27099609 34.1081543 C22.28628566 37.59683452 22.32094319 41.08486107 22.36830902 44.57324791 C22.39008221 46.53317134 22.39246311 48.4932799 22.39434814 50.45332336 C22.52479989 58.527307 23.09800848 67.15227962 28.3760376 73.70954895 C33.6727012 78.49027365 39.58786348 79.47814915 46.47265625 79.3125 C51.9528831 78.63488308 56.19474071 76.20225519 59.875 72.125 C63.31367931 67.06811866 64.24584772 62.59463897 64.31884766 56.53564453 C64.33871735 55.27479034 64.35858704 54.01393616 64.37905884 52.71487427 C64.39093243 51.35418879 64.40259545 49.99350146 64.4140625 48.6328125 C64.43279034 47.22890098 64.45236495 45.82500053 64.4727478 44.42111206 C64.5239046 40.74200995 64.5636178 37.06287142 64.60089111 33.38360596 C64.64103447 29.62283438 64.69207947 25.86221217 64.7421875 22.1015625 C64.83875182 14.73447009 64.92220961 7.36731895 65 0 C72.59 0 80.18 0 88 0 C88 32.34 88 64.68 88 98 C80.41 98 72.82 98 65 98 C64.67 94.04 64.34 90.08 64 86 C63.030625 87.051875 62.06125 88.10375 61.0625 89.1875 C54.2153963 96.0346037 45.68827361 100.17515894 35.93505859 100.38037109 C25.60225969 100.35497203 17.34353041 99.04391098 9.52734375 91.6875 C-0.04856907 81.10746333 -0.4335651 68.82814816 -0.29296875 55.2734375 C-0.28736255 53.67347616 -0.2830973 52.07350962 -0.28010559 50.47354126 C-0.26873728 46.29450874 -0.23934079 42.11579686 -0.20599365 37.93688965 C-0.17511835 33.65979345 -0.16156321 29.38264465 -0.14648438 25.10546875 C-0.11446194 16.73681676 -0.06176121 8.3684854 0 0 Z " fill="#FEFBFB" transform="translate(584,538)"/>
<path d="M0 0 C1.48018674 1.16014636 2.94097748 2.34575362 4.375 3.5625 C5.014375 4.078125 5.65375 4.59375 6.3125 5.125 C7.68768501 6.24552112 9.03565097 7.39938111 10.375 8.5625 C8.81482103 12.16936535 6.61734682 14.77450604 4 17.6875 C2.84371094 18.99074219 2.84371094 18.99074219 1.6640625 20.3203125 C-0.40383797 22.34586688 -1.97221199 23.48442633 -4.625 24.5625 C-5.71167969 23.73105469 -5.71167969 23.73105469 -6.8203125 22.8828125 C-7.78710938 22.15835938 -8.75390625 21.43390625 -9.75 20.6875 C-11.17699219 19.60855469 -11.17699219 19.60855469 -12.6328125 18.5078125 C-19.32019299 14.16014215 -26.81880726 12.93970386 -34.625 14.125 C-41.92480598 15.78710967 -47.50506259 20.38259388 -51.625 26.5625 C-56.04682793 34.32843436 -57.64774292 41.59913504 -56.625 50.5625 C-53.87365948 59.83257678 -49.91962623 66.74434271 -41.625 71.9375 C-33.46624345 76.10460684 -25.41911666 75.72602381 -16.8125 73 C-11.51168717 70.84703057 -7.60291197 67.62019817 -3.625 63.5625 C0.18816478 65.15206284 2.747784 67.57010697 5.6875 70.4375 C6.59113281 71.30117188 7.49476563 72.16484375 8.42578125 73.0546875 C10.375 75.5625 10.375 75.5625 10.41015625 77.63671875 C6.24704728 85.38167241 -2.66284831 89.76762226 -10.625 92.5625 C-23.72774731 96.45494795 -39.11516404 96.30500944 -51.625 90.5625 C-54.8334152 88.78814917 -57.73117597 86.80801315 -60.625 84.5625 C-61.65625 83.82 -62.6875 83.0775 -63.75 82.3125 C-74.52338264 72.0075253 -79.56654067 58.44321533 -79.9375 43.75 C-79.67469347 29.37293702 -74.76837752 17.13466832 -64.8828125 6.62890625 C-47.98571217 -8.83574094 -19.53199658 -13.45211193 0 0 Z " fill="#FEFAFA" transform="translate(559.625,543.4375)"/>
<path d="M0 0 C7.59 0 15.18 0 23 0 C23 8.91 23 17.82 23 27 C31.58 27 40.16 27 49 27 C49 33.27 49 39.54 49 46 C40.09 46 31.18 46 22 46 C22.07403547 53.29632303 22.15690384 60.59142866 22.26245117 67.88720703 C22.29567236 70.36826235 22.32371298 72.84939273 22.34643555 75.33056641 C22.3800322 78.90039001 22.43235283 82.46952745 22.48828125 86.0390625 C22.49467117 87.14553131 22.5010611 88.25200012 22.50764465 89.39199829 C22.61340473 94.9520566 22.74532211 99.25737033 26 104 C31.44883691 107.4249832 38.02067066 106.31620457 44 105 C45.98 104.505 45.98 104.505 48 104 C48 109.94 48 115.88 48 122 C37.64127659 127.1793617 28.13674084 128.82639513 16.6875 125.9375 C10.65556652 123.80915924 5.82135901 120.44359978 2.784729 114.70231628 C-0.18831826 106.9754549 -0.5257962 100.02199248 -0.390625 91.80078125 C-0.38213531 89.82648384 -0.38213531 89.82648384 -0.37347412 87.81230164 C-0.35836726 84.35153525 -0.3192204 80.89146489 -0.2746582 77.43096924 C-0.2333776 73.88441375 -0.21539394 70.33774328 -0.1953125 66.79101562 C-0.15270667 59.8603663 -0.08248455 52.93028845 0 46 C-4.29 46 -8.58 46 -13 46 C-13.02683987 43.02077407 -13.04676037 40.04178705 -13.0625 37.0625 C-13.07087891 36.21236328 -13.07925781 35.36222656 -13.08789062 34.48632812 C-13.09111328 33.67744141 -13.09433594 32.86855469 -13.09765625 32.03515625 C-13.10289307 31.2862915 -13.10812988 30.53742676 -13.11352539 29.76586914 C-13 28 -13 28 -12 27 C-8.04 27 -4.08 27 0 27 C0 18.09 0 9.18 0 0 Z " fill="#FEFCFC" transform="translate(815,511)"/>
<path d="M0 0 C6.93 0 13.86 0 21 0 C21 11.88 21 23.76 21 36 C32.55 36 44.1 36 56 36 C56 42.93 56 49.86 56 57 C44.45 57 32.9 57 21 57 C21 68.55 21 80.1 21 92 C13.74 92 6.48 92 -1 92 C-1 80.45 -1 68.9 -1 57 C-12.55 57 -24.1 57 -36 57 C-36 50.07 -36 43.14 -36 36 C-24.12 36 -12.24 36 0 36 C0 24.12 0 12.24 0 0 Z " fill="#FDFAFA" transform="translate(1019,525)"/>
<path d="M0 0 C0.02887236 3.81248426 0.04675492 7.6249407 0.0625 11.4375 C0.07087891 12.52611328 0.07925781 13.61472656 0.08789062 14.73632812 C0.09111328 15.77080078 0.09433594 16.80527344 0.09765625 17.87109375 C0.10289307 18.82943115 0.10812988 19.78776855 0.11352539 20.77514648 C0 23 0 23 -1 24 C-2.258125 24.061875 -3.51625 24.12375 -4.8125 24.1875 C-12.37426814 24.94972623 -19.16730227 28.69843309 -25 33.4375 C-32.31930463 42.81535905 -34.43500058 52.5343814 -34.51171875 64.2578125 C-34.52966995 65.28687714 -34.54762115 66.31594177 -34.56611633 67.37619019 C-34.61979837 70.62575319 -34.65397923 73.87517294 -34.6875 77.125 C-34.72071027 79.34376976 -34.75520329 81.56252071 -34.79101562 83.78125 C-34.87788761 89.18751582 -34.93831687 94.59315502 -35 100 C-42.59 100 -50.18 100 -58 100 C-58 67.66 -58 35.32 -58 2 C-50.41 2 -42.82 2 -35 2 C-34.67 8.27 -34.34 14.54 -34 21 C-33.154375 19.659375 -32.30875 18.31875 -31.4375 16.9375 C-25.53782034 8.1706863 -19.61240172 3.17497192 -9.375 0.25 C-6.24503539 -0.07946996 -3.14516283 -0.01466276 0 0 Z " fill="#FEFBFA" transform="translate(752,536)"/>
<path d="M0 0 C6.22576252 4.29597009 11.70375632 9.64982286 14 17 C15.28083767 26.02937631 14.29489455 33.49087682 9 41 C7.10766109 43.30411926 5.29669104 45.06057201 3 47 C2.34 47 1.68 47 1 47 C1 47.66 1 48.32 1 49 C-8.05621587 53.87642393 -18.00414715 54.55565675 -27.96875 52.33984375 C-33.86745703 50.23706393 -38.85319697 46.70279897 -43 42 C-43 41.34 -43 40.68 -43 40 C-43.66 40 -44.32 40 -45 40 C-49.21999994 29.75142871 -50.51924017 23.14874176 -46.38671875 12.6796875 C-42.30715648 4.79636436 -34.50218233 -0.89991627 -26.11328125 -3.609375 C-17.05835847 -5.28311304 -8.11982991 -4.3807593 0 0 Z " fill="#D03C2D" transform="translate(542,317)"/>
<path d="M0 0 C5.000276 1.20377015 6.96420702 3.60393718 9.6875 7.8671875 C12.10990947 12.03430855 14.02548713 16.23103984 15.62890625 20.76953125 C17.34740168 25.47514962 19.32823576 30.09580664 21.9375 34.375 C23.51719358 37.05361086 24.50573224 39.71286573 25.55859375 42.62890625 C27.33251637 47.37351269 29.29822748 52.04659307 31.9375 56.375 C33.48697104 59.00236394 34.46125031 61.687795 35.48046875 64.5546875 C36.8603729 68.03758967 38.62816031 71.30885137 40.38671875 74.61328125 C41.375 76.8125 41.375 76.8125 41.375 79.8125 C36.20580346 79.68614186 31.68010779 79.41236433 27.7265625 75.6796875 C24.65679234 71.43879115 21.375 65.13210853 21.375 59.8125 C7.515 59.8125 -6.345 59.8125 -20.625 59.8125 C-21.285 61.7925 -21.945 63.7725 -22.625 65.8125 C-23.37692352 67.55931553 -24.16757455 69.29008148 -25 71 C-25.39960937 71.83917969 -25.79921875 72.67835938 -26.2109375 73.54296875 C-28.41686526 77.08342187 -30.7062251 78.5062417 -34.625 79.8125 C-36.95799825 79.85204234 -39.29208189 79.85651732 -41.625 79.8125 C-39.77388121 73.91686612 -37.62868211 68.30851845 -35 62.71875 C-34.65653534 61.97727219 -34.31307068 61.23579437 -33.959198 60.47184753 C-32.85215152 58.08334873 -31.73882488 55.69784439 -30.625 53.3125 C-29.08273428 49.99757384 -27.54399485 46.68103072 -26.0078125 43.36328125 C-25.62875763 42.54503372 -25.24970276 41.72678619 -24.85916138 40.88374329 C-22.60006898 35.98689595 -20.41635971 31.06770034 -18.3046875 26.10546875 C-17.58152344 24.40970703 -17.58152344 24.40970703 -16.84375 22.6796875 C-15.97935295 20.63428285 -15.12678497 18.58381731 -14.2890625 16.52734375 C-11.37773184 9.65660339 -7.78487182 1.74488506 0 0 Z " fill="#D13D2E" transform="translate(828.625,290.1875)"/>
<path d="M0 0 C9.01875137 6.6178551 12.4802586 13.82686412 14.2890625 24.6796875 C14.2890625 33.2596875 14.2890625 41.8396875 14.2890625 50.6796875 C-4.5209375 50.6796875 -23.3309375 50.6796875 -42.7109375 50.6796875 C-42.7109375 13.73312261 -42.7109375 13.73312261 -33.6640625 4.6171875 C-24.14889991 -4.32323372 -11.75647159 -6.77816114 0 0 Z " fill="#FCFCFC" transform="translate(657.7109375,757.3203125)"/>
<path d="M0 0 C7.59 0 15.18 0 23 0 C23 32.34 23 64.68 23 98 C15.41 98 7.82 98 0 98 C0 65.66 0 33.32 0 0 Z " fill="#FDFAF9" transform="translate(765,538)"/>
<path d="M0 0 C1.50853129 0.88560544 2.99401443 1.8124881 4.4453125 2.7890625 C6.6250816 4.2060842 6.6250816 4.2060842 10.41796875 3.8828125 C12.44928547 2.59769376 14.45074867 1.26405213 16.41796875 -0.1171875 C21.77778447 -1.90379274 27.55314309 -2.1107429 32.9296875 -0.24609375 C38.85091489 2.82007663 43.38631636 6.98527114 46.48022461 12.9206543 C47.78031576 17.02739887 47.66531997 20.84033823 47.61328125 25.12109375 C47.61045135 26.00186081 47.60762146 26.88262787 47.60470581 27.79008484 C47.59354708 30.59196795 47.56845046 33.39352666 47.54296875 36.1953125 C47.53293338 38.09960475 47.5238085 40.00390202 47.515625 41.90820312 C47.49362184 46.56653047 47.45912169 51.22461656 47.41796875 55.8828125 C42.57333336 55.15936862 40.66700397 53.58310261 37.41796875 49.8828125 C36.01121477 47.06930454 36.25411519 44.66314005 36.20703125 41.51953125 C36.17867187 40.24013672 36.1503125 38.96074219 36.12109375 37.64257812 C36.07991678 35.60848473 36.04302476 33.57462471 36.01660156 31.5402832 C35.98886829 29.57480701 35.94190686 27.6096321 35.89453125 25.64453125 C35.86480225 23.8804895 35.86480225 23.8804895 35.83447266 22.08081055 C35.37860496 18.58056968 34.54082101 16.67951096 32.41796875 13.8828125 C27.85057058 11.59911342 24.33522923 11.67669201 19.41796875 12.8828125 C16.8334159 14.77815125 16.45521369 15.77107767 15.41796875 18.8828125 C15.26404245 21.68441752 15.1605883 24.46579675 15.1015625 27.26953125 C15.0807814 28.08654007 15.06000031 28.90354889 15.03858948 29.74531555 C14.97323796 32.35356284 14.91427602 34.96191025 14.85546875 37.5703125 C14.81226983 39.33920304 14.7686551 41.10808347 14.72460938 42.87695312 C14.61757132 47.21213713 14.51626331 51.54742179 14.41796875 55.8828125 C9.75390625 56.15625 9.75390625 56.15625 6.73046875 53.6953125 C2.93236707 49.07599965 2.17480776 45.36419723 2.109375 39.4453125 C2.08423828 38.22070312 2.05910156 36.99609375 2.03320312 35.734375 C1.99804757 33.16671717 1.96679735 30.5990029 1.93945312 28.03125 C1.91302734 26.80664062 1.88660156 25.58203125 1.859375 24.3203125 C1.84592041 23.20527344 1.83246582 22.09023438 1.81860352 20.94140625 C1.37220268 17.53341745 0.44984508 15.63048815 -1.58203125 12.8828125 C-5.27634733 11.03565446 -9.54917958 11.40720964 -13.58203125 11.8828125 C-16.14982188 13.63642561 -17.18920412 14.70498883 -18.1652832 17.6315918 C-18.69675286 20.50252424 -18.69153581 23.2323315 -18.6875 26.15234375 C-18.70232422 27.37115234 -18.71714844 28.58996094 -18.73242188 29.84570312 C-18.7570474 32.40027724 -18.7624356 34.95511334 -18.74804688 37.50976562 C-18.86590233 44.28466842 -19.06268679 48.85765551 -24.0234375 53.75268555 C-26.17580456 55.31335396 -27.92819293 55.8828125 -30.58203125 55.8828125 C-32.57635921 53.88848454 -31.74598609 49.92259048 -31.75 47.19140625 C-31.7533284 46.41273697 -31.7566568 45.63406769 -31.76008606 44.83180237 C-31.76516209 43.17652986 -31.76749418 41.52124708 -31.76733398 39.8659668 C-31.7695012 37.3551286 -31.78759536 34.8447436 -31.80664062 32.33398438 C-31.80957842 30.72395983 -31.81156063 29.1139332 -31.8125 27.50390625 C-31.81968552 26.76087753 -31.82687103 26.01784882 -31.83427429 25.25230408 C-31.81243046 20.16226126 -30.97687343 15.78117207 -29.58203125 10.8828125 C-28.92203125 10.8828125 -28.26203125 10.8828125 -27.58203125 10.8828125 C-27.34355469 10.12484375 -27.10507812 9.366875 -26.859375 8.5859375 C-25.3714938 5.43727148 -24.06840022 4.45722992 -21.14453125 2.6328125 C-20.36207031 2.13265625 -19.57960938 1.6325 -18.7734375 1.1171875 C-13.14967485 -2.05056472 -5.95247028 -2.57550151 0 0 Z " fill="#D13E2F" transform="translate(589.58203125,314.1171875)"/>
<path d="M0 0 C4.32939015 3.72808596 8.25533645 7.95709538 10.5625 13.25 C10.0675 14.735 10.0675 14.735 9.5625 16.25 C5.23293236 17.41159132 2.41597887 17.27796593 -1.6640625 15.3359375 C-3.58021235 14.16261226 -5.10172914 12.83695708 -6.75 11.3125 C-14.08618029 4.81844195 -21.98389584 3.5125929 -31.61328125 3.8046875 C-40.10994893 4.79408496 -48.33586872 7.65185659 -54.0703125 14.2421875 C-58.69168455 21.02900245 -60.61177722 28.10422434 -59.4375 36.25 C-57.60980503 44.90431725 -53.85116542 50.41004946 -46.4375 55.25 C-37.31261916 60.1378345 -27.28895036 60.7171863 -17.3125 58.1875 C-13.34565835 56.86736601 -10.24740228 54.86385445 -6.8125 52.5 C-3.3080641 50.13388441 -1.14485118 48.72495501 3.125 49.25 C6.5625 50.25 6.5625 50.25 8.5625 51.25 C4.52263704 60.14546749 -4.25246096 65.86907325 -13.13671875 69.2890625 C-26.44875737 73.35293734 -39.25376927 71.50538982 -51.453125 65.10546875 C-56.29311667 62.09631163 -60.61321367 58.48040523 -64.4375 54.25 C-64.4375 53.59 -64.4375 52.93 -64.4375 52.25 C-65.0975 52.25 -65.7575 52.25 -66.4375 52.25 C-72.08494505 40.53832429 -72.08494505 40.53832429 -72.4375 35.25 C-72.52 34.05375 -72.6025 32.8575 -72.6875 31.625 C-72.44736241 20.18571837 -68.28421349 11.1283744 -60.2734375 3.07421875 C-54.95616232 -1.75 -54.95616232 -1.75 -52.4375 -1.75 C-52.4375 -2.41 -52.4375 -3.07 -52.4375 -3.75 C-34.6591136 -11.69435488 -16.17643782 -12.13232836 0 0 Z " fill="#D13E2F" transform="translate(483.4375,298.75)"/>
<path d="M0 0 C2.78797239 2.06156491 4.89578414 4.25220748 7 7 C7.5053125 7.62261719 8.010625 8.24523437 8.53125 8.88671875 C13.32563015 15.87852314 12.9089316 23.90377596 12 32 C10.2696276 38.20356915 6.31982843 43.11577305 0.6875 46.3125 C0.130625 46.539375 -0.42625 46.76625 -1 47 C-1 47.66 -1 48.32 -1 49 C-6.37998754 51.68999377 -11.20617438 52.32601735 -17.1875 52.375 C-17.87650391 52.38853516 -18.56550781 52.40207031 -19.27539062 52.41601562 C-23.69899921 52.37747499 -26.48448911 51.69395128 -30 49 C-33.36521927 44.90716575 -34.50464541 42.29877676 -34 37 C-33.01 36.505 -33.01 36.505 -32 36 C-30.7625 36.680625 -30.7625 36.680625 -29.5 37.375 C-22.38074833 40.68036685 -15.59134262 40.60295599 -8.203125 38.09375 C-4.14401227 36.07858765 -2.01491868 33.02983735 0 29 C0.62883218 23.06237304 0.07960184 18.23532312 -3 13 C-8.70798527 8.48117833 -13.11428315 7.85719273 -20.1875 7.9375 C-20.93708984 7.94201172 -21.68667969 7.94652344 -22.45898438 7.95117188 C-24.30602383 7.96293646 -26.15302213 7.98087135 -28 8 C-28 8.66 -28 9.32 -28 10 C-29.423125 10.8971875 -29.423125 10.8971875 -30.875 11.8125 C-34.40460379 14.28322265 -34.8772785 14.95820259 -36 19 C-36.28859539 22.2165398 -36.3008564 25.42048703 -36.30859375 28.6484375 C-36.33375354 30.55989889 -36.35915157 32.47135715 -36.38476562 34.3828125 C-36.41348282 37.3802001 -36.43751588 40.37753352 -36.45629883 43.375 C-36.47803053 46.27892806 -36.51747321 49.18222854 -36.55859375 52.0859375 C-36.55870956 52.97469574 -36.55882538 53.86345398 -36.5589447 54.77914429 C-36.65709097 60.99092486 -37.36564536 66.27783354 -41.875 70.9375 C-44.41594441 72.20797221 -46.1948087 72.07869349 -49 72 C-49.10181551 64.47448341 -49.17163986 56.94914593 -49.21972656 49.4230957 C-49.23978303 46.86541099 -49.26703505 44.30777179 -49.30175781 41.75024414 C-49.35053672 38.06385025 -49.37302945 34.37806516 -49.390625 30.69140625 C-49.42159271 28.98930748 -49.42159271 28.98930748 -49.45318604 27.25282288 C-49.4558031 17.8938023 -47.22781573 10.62336211 -40.84375 3.63671875 C-28.82622037 -7.03138488 -13.87907998 -8.05027399 0 0 Z " fill="#D13E2F" transform="translate(692,318)"/>
<path d="M0 0 C27.39 0 54.78 0 83 0 C82 6 82 6 79.5625 8.3125 C68.71356021 15.45692376 68.63100513 11 47 11 C47 33.44 47 55.88 47 79 C40.81518225 77.96919704 39.73686193 77.5910018 36 73 C34.87835141 69.77099598 34.87895596 66.71190618 34.88647461 63.31347656 C34.88655014 62.17259583 34.88662567 61.03171509 34.88670349 59.85626221 C34.89186478 58.63010193 34.89702606 57.40394165 34.90234375 56.140625 C34.9037587 54.88111023 34.90517365 53.62159546 34.90663147 52.32391357 C34.91127927 48.98334881 34.92025719 45.64285279 34.93133545 42.30230713 C34.94158402 38.8903462 34.94613646 35.47837815 34.95117188 32.06640625 C34.96220037 25.3775852 34.97893811 18.68879657 35 12 C33.95658447 12.01571045 33.95658447 12.01571045 32.89208984 12.03173828 C29.71976377 12.07348637 26.54749569 12.09938585 23.375 12.125 C22.28058594 12.14175781 21.18617188 12.15851563 20.05859375 12.17578125 C7.8125 12.25 7.8125 12.25 3.125 8.5 C2 7 2 7 2 5 C1.34 5 0.68 5 0 5 C0 3.35 0 1.7 0 0 Z " fill="#D13E2F" transform="translate(685,291)"/>
<path d="M0 0 C3.32121673 2.52166455 5.81424917 5.53474834 7.6875 9.28125 C8.22322132 15.49561727 7.5763702 20.23972298 3.6875 25.28125 C-1.94484012 29.85965122 -7.32079925 31.70292556 -14.54296875 31.62890625 C-20.6339803 30.86430819 -25.68045565 27.99290627 -29.875 23.59375 C-32.82721454 18.84453531 -32.91733563 14.80995882 -32.3125 9.28125 C-29.92310179 4.41055366 -26.62789963 1.42789556 -22.3125 -1.71875 C-15.1566008 -4.1346305 -6.5358547 -3.81258191 0 0 Z " fill="#FEFBFA" transform="translate(537.3125,327.71875)"/>
<path d="M0 0 C6.77497665 3.82839951 10.61782875 8.67553711 13.2421875 15.9453125 C13.6875 17.9375 13.6875 17.9375 13.6875 22.9375 C-2.4825 22.9375 -18.6525 22.9375 -35.3125 22.9375 C-34.34168979 14.20020809 -33.70263257 9.93739856 -27.37890625 4.17578125 C-18.98024976 -2.38120388 -10.03377557 -4.60765525 0 0 Z " fill="#D03A2B" transform="translate(432.3125,557.0625)"/>
<path d="M0 0 C4.14332174 0.19271264 5.73517998 0.75688033 8.83952332 3.60684204 C11.41627561 7.07785405 11.60558919 9.96283216 11.56762695 14.29052734 C11.56872215 15.3452272 11.56872215 15.3452272 11.56983948 16.42123413 C11.56637802 18.72694209 11.52759139 21.03058609 11.48828125 23.3359375 C11.47894784 24.94160865 11.47183422 26.5472941 11.46684265 28.15298462 C11.44781399 32.36521182 11.39875017 36.57656763 11.34332275 40.78845215 C11.29204021 45.09192112 11.26930949 49.39553184 11.24414062 53.69921875 C11.19062622 62.13321098 11.10536503 70.56649688 11 79 C6.55838856 79.29908579 6.55838856 79.29908579 4.21981812 78.04649353 C-0.8835353 72.86228573 -0.7322429 67.16985962 -0.67977905 60.22938538 C-0.64914659 58.67504609 -0.61785074 57.12071976 -0.5859375 55.56640625 C-0.57473439 53.96216931 -0.56619947 52.35791173 -0.56021118 50.75364685 C-0.53739984 46.54947338 -0.47854579 42.34656139 -0.4119873 38.1428833 C-0.35039678 33.84608013 -0.3231606 29.54907133 -0.29296875 25.25195312 C-0.2287926 16.83405918 -0.12650953 8.4171869 0 0 Z " fill="#D0392A" transform="translate(772,291)"/>
<path d="M0 0 C3.18086186 2.65796414 4.46819633 5.82347714 6.13671875 9.56640625 C6.42102249 10.20110336 6.70532623 10.83580048 6.99824524 11.48973083 C7.59561888 12.82722307 8.18964394 14.16621532 8.78051758 15.5065918 C9.68734704 17.56215327 10.60547742 19.61237482 11.52539062 21.66210938 C16 31.7097137 16 31.7097137 16 34 C6.1 34 -3.8 34 -14 34 C-13.10498044 29.52490222 -11.92619209 26.28393792 -10.05859375 22.16796875 C-9.77146011 21.53135818 -9.48432648 20.89474762 -9.18849182 20.23884583 C-8.27635209 18.21949002 -7.35705292 16.20348922 -6.4375 14.1875 C-5.8152785 12.8133668 -5.1935286 11.43901995 -4.57226562 10.06445312 C-3.05362805 6.7071451 -1.52855513 3.35280629 0 0 Z " fill="#FDF7F6" transform="translate(828,305)"/>
<path d="M0 0 C7.92 0 15.84 0 24 0 C24 6.93 24 13.86 24 21 C16.08 21 8.16 21 0 21 C0 14.07 0 7.14 0 0 Z " fill="#FEFCFC" transform="translate(764,502)"/>
<path d="M0 0 C3.24168949 1.62084474 5.19736744 2.94198435 7.375 5.8125 C8.63856716 10.23498505 8.39804065 13.87221817 6.875 18.1875 C4.59177088 21.61234369 2.68173216 23.15913392 -1 25 C-5.26568014 25.60938288 -7.38918695 25.30540652 -11.25 23.375 C-15.35422338 19.83044344 -16.76759618 16.85923054 -17.4375 11.5 C-16.91481184 7.3184947 -15.64184935 5.24570063 -13 2 C-8.74347138 -0.83768574 -4.99717834 -0.63727624 0 0 Z " fill="#6F777E" transform="translate(649,861)"/>
<path d="M0 0 C1.9375 1.125 1.9375 1.125 3 3 C2.875 6.0625 2.875 6.0625 2 9 C-1 11 -1 11 -4.0625 10.8125 C-7 10 -7 10 -9 7 C-8.75 3.875 -8.75 3.875 -8 1 C-5.20129973 -0.39935013 -3.09501208 -0.25265405 0 0 Z " fill="#E2877E" transform="translate(878,355)"/>
<path d="M0 0 C2.9375 0.8125 2.9375 0.8125 4.9375 2.8125 C4.36057692 9.38942308 4.36057692 9.38942308 2.9375 10.8125 C-3.28607019 11.2735052 -3.28607019 11.2735052 -6.0625 9.625 C-7.0625 7.8125 -7.0625 7.8125 -6.9375 5.3125 C-5.48244102 1.15518862 -4.58539448 -0.28073844 0 0 Z " fill="#A9AEB2" transform="translate(969.0625,908.1875)"/>
<path d="M0 0 C3.125 0.375 3.125 0.375 6 1 C6 1.99 6 2.98 6 4 C4.35 4.66 2.7 5.32 1 6 C1 5.34 1 4.68 1 4 C0.34 4 -0.32 4 -1 4 C-1.33 4.99 -1.66 5.98 -2 7 C-2.125 4.625 -2.125 4.625 -2 2 C-1.34 1.34 -0.68 0.68 0 0 Z " fill="#C6C9CC" transform="translate(966,908)"/>
<path d="M0 0 C0.33 0 0.66 0 1 0 C1 1.65 1 3.3 1 5 C3.97 5 6.94 5 10 5 C9.67 5.99 9.34 6.98 9 8 C2.60924751 8.36174071 2.60924751 8.36174071 0 6.8125 C-1 5 -1 5 -0.6875 2.3125 C-0.460625 1.549375 -0.23375 0.78625 0 0 Z " fill="#7B8288" transform="translate(963,911)"/>
</svg>
